<?xml version="1.0" standalone="no"?>
<!DOCTYPE svg PUBLIC "-//W3C//DTD SVG 20010904//EN"
 "http://www.w3.org/TR/2001/REC-SVG-20010904/DTD/svg10.dtd">
<svg version="1.0" xmlns="http://www.w3.org/2000/svg"
 width="144.000000pt" height="126.000000pt" viewBox="0 0 144.000000 126.000000"
 preserveAspectRatio="xMidYMid meet">

<g transform="translate(0.000000,126.000000) scale(0.100000,-0.100000)"
fill="#000000" stroke="none">
<path d="M202 1090 c-19 -12 -41 -38 -52 -63 -18 -39 -20 -68 -20 -397 0 -329
2 -358 20 -397 33 -74 59 -83 250 -83 l166 0 74 -75 75 -76 5 73 5 73 245 5
c278 6 286 8 321 83 17 39 19 70 19 397 0 329 -2 358 -20 397 -11 25 -33 51
-52 63 -32 19 -49 20 -518 20 -469 0 -486 -1 -518 -20z m663 -134 c73 -33 141
-98 178 -171 29 -55 31 -68 31 -155 0 -87 -2 -100 -31 -155 -79 -153 -245
-231 -403 -191 -111 29 -184 88 -241 196 -21 39 -24 59 -24 150 0 92 3 111 24
150 37 70 68 105 124 144 102 69 234 82 342 32z"/>
<path d="M750 871 l0 -61 35 0 c19 0 35 5 35 10 0 17 -37 85 -54 99 -14 12
-16 7 -16 -48z"/>
<path d="M663 898 c-23 -26 -43 -61 -43 -77 0 -6 16 -11 35 -11 l35 0 0 55 c0
30 -1 55 -3 55 -2 0 -13 -10 -24 -22z"/>
<path d="M574 897 c-27 -16 -66 -48 -83 -70 -12 -16 -10 -17 27 -17 39 0 42 2
62 47 11 25 19 47 18 49 -2 1 -12 -3 -24 -9z"/>
<path d="M862 860 c20 -50 21 -50 66 -50 l45 0 -19 21 c-22 26 -94 79 -105 79
-4 0 1 -22 13 -50z"/>
<path d="M432 721 c-22 -73 -20 -76 48 -73 60 4 60 4 60 35 0 18 3 42 6 55 6
21 3 22 -48 22 l-55 0 -11 -39z"/>
<path d="M596 729 c-3 -17 -6 -43 -6 -58 0 -25 3 -26 50 -26 l50 0 0 58 0 57
-44 0 c-41 0 -44 -2 -50 -31z"/>
<path d="M750 703 l0 -58 50 0 50 0 0 42 c0 65 -6 73 -56 73 l-44 0 0 -57z"/>
<path d="M900 703 l5 -57 60 3 c33 1 61 4 63 6 2 2 -2 25 -10 52 l-14 48 -54
3 -55 3 5 -58z"/>
<path d="M424 565 c18 -71 22 -75 77 -75 l52 0 -7 31 c-3 17 -6 40 -6 50 0 17
-8 19 -61 19 -60 0 -61 0 -55 -25z"/>
<path d="M590 578 c0 -7 3 -30 6 -50 6 -37 8 -38 50 -38 l44 0 0 50 0 50 -50
0 c-33 0 -50 -4 -50 -12z"/>
<path d="M750 540 l0 -50 44 0 c47 0 56 11 56 73 0 26 -2 27 -50 27 l-50 0 0
-50z"/>
<path d="M900 556 c0 -19 -3 -41 -6 -50 -5 -13 3 -16 50 -16 31 0 56 1 56 3 0
1 7 23 15 50 l14 47 -64 0 -65 0 0 -34z"/>
<path d="M490 433 c0 -9 56 -55 88 -72 27 -14 27 -11 2 39 -18 35 -25 40 -55
40 -19 0 -35 -3 -35 -7z"/>
<path d="M620 432 c0 -11 58 -102 65 -102 3 0 5 25 5 55 l0 55 -35 0 c-19 0
-35 -4 -35 -8z"/>
<path d="M750 385 c0 -30 2 -55 4 -55 9 0 54 65 61 88 6 20 3 22 -29 22 l-36
0 0 -55z"/>
<path d="M862 398 c-11 -24 -18 -45 -16 -47 5 -6 68 37 93 63 l24 26 -41 0
c-39 0 -42 -2 -60 -42z"/>
</g>
</svg>
