<svg version="1.1" id="Layer_1" xmlns="http://www.w3.org/2000/svg" xmlns:xlink="http://www.w3.org/1999/xlink" x="0px" y="0px"
	 width="24px" height="24px" viewBox="0 0 147 147" enable-background="new 0 0 147 147" xml:space="preserve">
<path fill="#AA324E" opacity="1.000000" stroke="none" 
	d="
M148.000000,64.000000 
	C148.000000,70.687645 148.000000,77.375290 147.629166,84.703140 
	C147.160263,86.825462 147.292496,88.366653 146.929642,89.780830 
	C141.434570,111.198257 130.117935,128.506516 110.121826,138.795273 
	C102.252541,142.844315 93.403099,144.988419 85.000000,148.000000 
	C78.312355,148.000000 71.624710,148.000000 64.296852,147.629150 
	C39.702274,143.995285 21.807940,131.522690 10.130836,110.654373 
	C6.045110,103.352707 3.985077,94.917542 1.000001,87.000000 
	C1.000000,78.979095 1.000000,70.958199 1.366475,62.303677 
	C5.653214,38.801727 17.780376,21.449408 37.895485,10.218250 
	C45.328686,6.067965 53.930935,4.011447 62.000000,1.000000 
	C70.020897,1.000000 78.041801,1.000000 86.696320,1.366472 
	C115.198662,6.882589 133.769302,23.169313 143.912811,49.317337 
	C145.741272,54.030754 146.660828,59.096767 148.000000,64.000000 
M45.551258,39.987705 
	C42.378151,43.582848 38.577404,46.799660 36.142174,50.839584 
	C26.359985,67.067757 31.254627,90.520081 46.857159,104.136658 
	C65.510040,120.415337 92.148254,120.166977 111.024956,103.538383 
	C117.410698,97.913139 122.906181,99.352989 125.770035,107.396561 
	C125.930122,107.846176 126.150322,108.274399 126.360573,108.753685 
	C131.159637,103.474571 130.128128,96.494286 123.951637,94.205284 
	C121.542831,93.312584 120.813034,92.339729 120.330170,89.894638 
	C118.959343,82.953156 111.691536,80.771378 106.323082,85.553604 
	C110.818680,86.786247 114.310974,89.446159 113.348007,94.258774 
	C112.831276,96.841232 110.220795,100.144028 107.850471,100.893654 
	C105.512741,101.632950 101.088722,100.397766 99.764885,98.502625 
	C98.249435,96.333168 97.992500,91.914261 99.201706,89.467522 
	C102.902504,81.979294 105.629395,74.408936 104.584885,66.029083 
	C100.955429,36.910645 70.739243,23.287695 45.551258,39.987705 
z"/>
<path fill="none" opacity="1.000000" stroke="none" 
	d="
M85.468658,148.000000 
	C93.403099,144.988419 102.252541,142.844315 110.121826,138.795273 
	C130.117935,128.506516 141.434570,111.198257 146.929642,89.780830 
	C147.292496,88.366653 147.160263,86.825462 147.629166,85.171677 
	C148.000000,105.926826 148.000000,126.853645 148.000000,148.000000 
	C127.312958,148.000000 106.625137,148.000000 85.468658,148.000000 
z"/>
<path fill="none" opacity="1.000000" stroke="none" 
	d="
M148.000000,63.531342 
	C146.660828,59.096767 145.741272,54.030754 143.912811,49.317337 
	C133.769302,23.169313 115.198662,6.882589 87.164963,1.366472 
	C107.261330,1.000000 127.522667,1.000000 148.000000,1.000000 
	C148.000000,21.687059 148.000000,42.374870 148.000000,63.531342 
z"/>
<path fill="none" opacity="1.000000" stroke="none" 
	d="
M1.000001,87.468658 
	C3.985077,94.917542 6.045110,103.352707 10.130836,110.654373 
	C21.807940,131.522690 39.702274,143.995285 63.828316,147.629150 
	C43.074360,148.000000 22.148720,148.000000 1.000000,148.000000 
	C1.000000,127.979660 1.000000,107.958488 1.000001,87.468658 
z"/>
<path fill="none" opacity="1.000000" stroke="none" 
	d="
M61.531342,1.000000 
	C53.930935,4.011447 45.328686,6.067965 37.895485,10.218250 
	C17.780376,21.449408 5.653214,38.801727 1.366475,61.835030 
	C1.000000,41.739853 1.000000,21.479706 1.000000,1.000000 
	C21.020359,1.000000 41.041523,1.000000 61.531342,1.000000 
z"/>
<path fill="none" opacity="1.000000" stroke="none" 
	d="
M45.847145,39.781696 
	C70.739243,23.287695 100.955429,36.910645 104.584885,66.029083 
	C105.629395,74.408936 102.902504,81.979294 99.201706,89.467522 
	C97.992500,91.914261 98.249435,96.333168 99.764885,98.502625 
	C101.088722,100.397766 105.512741,101.632950 107.850471,100.893654 
	C110.220795,100.144028 112.831276,96.841232 113.348007,94.258774 
	C114.310974,89.446159 110.818680,86.786247 106.323082,85.553604 
	C111.691536,80.771378 118.959343,82.953156 120.330170,89.894638 
	C120.813034,92.339729 121.542831,93.312584 123.951637,94.205284 
	C130.128128,96.494286 131.159637,103.474571 126.360573,108.753685 
	C126.150322,108.274399 125.930122,107.846176 125.770035,107.396561 
	C122.906181,99.352989 117.410698,97.913139 111.024956,103.538383 
	C92.148254,120.166977 65.510040,120.415337 46.857159,104.136658 
	C31.254627,90.520081 26.359985,67.067757 36.142174,50.839584 
	C38.577404,46.799660 42.378151,43.582848 45.847145,39.781696 
z"/>
</svg>