<svg id="svg" version="1.1" xmlns="http://www.w3.org/2000/svg" xmlns:xlink="http://www.w3.org/1999/xlink" width="24" height="24" viewBox="0, 0, 400,400"><g id="svgg"><path id="path0" d="M193.326 124.431 C 180.233 135.601,178.807 136.477,174.812 135.802 C 171.368 135.220,167.483 130.125,167.429 126.117 L 167.400 124.005 165.900 124.002 C 164.712 124.001,164.400 124.152,164.400 124.732 C 164.400 125.135,163.905 125.713,163.300 126.016 C 162.695 126.320,161.715 127.070,161.123 127.684 C 160.530 128.298,159.855 128.800,159.623 128.800 C 159.390 128.800,159.200 128.999,159.200 129.243 C 159.200 129.486,158.910 129.574,158.555 129.438 C 158.094 129.261,157.977 129.363,158.143 129.795 C 158.276 130.143,158.155 130.400,157.857 130.400 C 157.572 130.400,156.814 131.030,156.172 131.800 C 155.530 132.570,154.856 133.200,154.674 133.200 C 154.290 133.200,153.200 134.227,153.200 134.588 C 153.200 135.004,151.839 136.258,151.100 136.523 C 150.715 136.662,150.400 137.072,150.400 137.434 C 150.400 137.897,150.161 138.031,149.597 137.883 C 149.105 137.755,148.601 137.941,148.297 138.363 C 148.024 138.742,147.474 139.175,147.075 139.324 C 146.676 139.472,146.461 139.776,146.598 139.997 C 146.735 140.219,146.467 140.400,146.000 140.400 C 145.534 140.400,145.264 140.580,145.400 140.801 C 145.703 141.291,143.702 142.110,143.105 141.741 C 142.869 141.595,142.789 141.659,142.927 141.882 C 143.182 142.295,140.240 145.200,139.567 145.200 C 139.365 145.200,139.200 145.470,139.200 145.800 C 139.200 146.330,138.750 146.566,137.941 146.461 C 137.799 146.443,137.775 146.781,137.888 147.214 C 138.029 147.756,137.893 148.000,137.447 148.000 C 137.091 148.000,136.800 147.822,136.800 147.604 C 136.800 147.386,136.446 147.511,136.014 147.881 C 135.251 148.534,135.226 149.183,135.207 169.477 L 135.187 190.400 172.993 190.400 C 197.931 190.400,210.800 190.264,210.800 190.000 C 210.800 189.780,211.070 189.600,211.400 189.600 C 211.730 189.600,212.360 189.240,212.800 188.800 C 213.240 188.360,213.780 188.000,214.000 188.000 C 214.220 188.000,214.400 187.730,214.400 187.400 C 214.400 187.070,214.670 186.800,215.000 186.800 C 215.330 186.800,215.600 186.530,215.600 186.200 C 215.600 185.870,215.870 185.600,216.200 185.600 C 216.530 185.600,216.800 185.330,216.800 185.000 C 216.800 184.670,217.000 184.400,217.244 184.400 C 217.858 184.400,219.585 182.710,219.593 182.100 C 219.597 181.825,219.870 181.600,220.200 181.600 C 220.530 181.600,220.800 181.330,220.800 181.000 C 220.800 180.670,221.070 180.400,221.400 180.400 C 221.730 180.400,222.000 180.080,222.000 179.688 C 222.000 179.297,222.360 178.717,222.800 178.400 C 223.240 178.083,223.600 177.593,223.600 177.312 C 223.600 177.030,223.780 176.800,224.000 176.800 C 224.220 176.800,224.400 176.530,224.400 176.200 C 224.400 175.870,224.670 175.600,225.000 175.600 C 225.330 175.600,225.600 175.426,225.600 175.213 C 225.600 175.001,226.230 174.197,227.000 173.427 C 227.770 172.657,228.400 171.661,228.400 171.213 C 228.400 170.757,228.663 170.400,229.000 170.400 C 229.514 170.400,229.822 169.403,229.647 168.300 C 229.621 168.135,229.825 168.045,230.100 168.100 C 230.390 168.158,230.657 167.695,230.735 167.000 C 230.809 166.340,231.124 165.656,231.435 165.480 C 231.879 165.228,232.000 163.970,232.000 159.580 C 232.000 152.483,231.754 152.398,226.200 157.566 C 217.254 165.892,213.456 167.869,209.545 166.235 C 205.644 164.605,202.540 158.692,204.223 156.098 C 205.926 153.475,214.725 145.212,218.064 143.102 C 219.902 141.939,221.171 140.566,221.802 139.057 C 222.137 138.256,222.566 137.600,222.755 137.600 C 222.945 137.600,223.100 136.610,223.100 135.400 C 223.100 133.800,222.950 133.200,222.550 133.200 C 222.248 133.200,222.000 132.840,222.000 132.400 C 222.000 131.878,221.733 131.600,221.233 131.600 C 220.812 131.600,220.397 131.391,220.312 131.136 C 220.083 130.449,219.314 131.003,215.548 134.569 C 203.972 145.529,197.891 146.461,193.627 137.928 C 191.828 134.328,191.995 133.257,194.836 130.200 C 195.449 129.540,196.359 128.100,196.858 127.000 C 197.357 125.900,197.828 124.881,197.904 124.736 C 197.980 124.591,197.504 124.355,196.845 124.210 C 196.187 124.065,195.593 123.658,195.524 123.304 C 195.429 122.814,194.908 123.081,193.326 124.431 " stroke="none" fill="#eeb352" fill-rule="evenodd"></path><path id="path1" d="M237.200 64.400 C 237.200 64.844,237.467 65.200,237.800 65.200 C 238.531 65.200,238.652 67.849,237.931 68.090 C 237.673 68.176,237.391 69.093,237.305 70.129 C 237.218 71.164,236.890 72.504,236.576 73.106 C 235.784 74.623,235.801 79.744,236.600 80.543 C 236.930 80.873,237.200 81.696,237.200 82.371 C 237.200 83.197,237.397 83.600,237.800 83.600 C 238.130 83.600,238.400 83.870,238.400 84.200 C 238.400 84.619,238.822 84.800,239.800 84.800 C 240.778 84.800,241.200 84.981,241.200 85.400 C 241.200 85.800,241.600 86.000,242.400 86.000 C 243.467 86.000,243.600 86.133,243.600 87.200 C 243.600 88.413,242.651 88.920,242.290 87.900 C 242.192 87.625,242.132 88.570,242.156 90.000 C 242.188 91.885,242.062 92.572,241.700 92.500 C 241.425 92.445,241.191 92.445,241.180 92.500 C 241.168 92.555,241.068 93.410,240.956 94.400 C 240.698 96.681,240.490 97.303,240.073 97.045 C 239.890 96.932,239.741 97.146,239.742 97.520 C 239.749 102.488,239.567 104.000,238.963 104.000 C 238.458 104.000,238.345 104.392,238.415 105.900 C 238.549 108.789,238.459 109.308,237.864 109.080 C 237.458 108.924,237.307 109.468,237.240 111.335 C 237.180 112.986,236.962 113.902,236.576 114.118 C 236.142 114.360,236.000 115.321,236.000 118.020 C 236.000 121.584,235.911 121.804,234.546 121.640 C 234.296 121.610,233.986 121.859,233.858 122.193 C 233.715 122.566,233.852 122.800,234.213 122.800 C 234.536 122.800,234.800 123.070,234.800 123.400 C 234.800 123.800,234.400 124.000,233.600 124.000 C 232.813 124.000,232.400 124.202,232.400 124.586 C 232.400 124.908,232.040 125.365,231.600 125.600 C 231.160 125.835,230.800 126.407,230.800 126.870 C 230.800 127.333,230.510 127.924,230.156 128.183 C 229.567 128.613,229.573 128.715,230.221 129.363 C 230.972 130.115,230.934 130.178,229.100 131.227 C 228.598 131.515,228.400 132.132,228.400 133.414 C 228.400 135.132,228.354 135.200,227.200 135.200 C 226.400 135.200,226.000 135.400,226.000 135.800 C 226.000 136.130,225.751 136.400,225.447 136.400 C 225.142 136.400,224.801 136.753,224.688 137.186 C 224.537 137.764,224.181 137.948,223.341 137.886 C 222.555 137.827,222.200 137.987,222.200 138.400 C 222.200 138.730,222.020 139.203,221.800 139.451 C 221.580 139.699,221.131 140.290,220.802 140.765 C 220.473 141.239,219.483 142.113,218.602 142.707 C 214.356 145.568,206.017 153.335,204.223 156.098 C 202.540 158.692,205.644 164.605,209.545 166.235 C 213.534 167.902,216.930 166.093,226.731 157.081 C 228.409 155.538,230.188 154.262,230.844 154.131 C 231.480 154.004,232.000 153.653,232.000 153.350 C 232.000 153.047,232.270 152.800,232.600 152.800 C 232.933 152.800,233.200 152.444,233.200 152.000 C 233.200 151.556,233.467 151.200,233.800 151.200 C 234.247 151.200,234.400 150.728,234.400 149.353 C 234.400 147.704,234.485 147.529,235.200 147.716 C 235.868 147.891,236.000 147.728,236.000 146.734 C 236.000 146.079,236.270 145.273,236.600 144.943 C 237.674 143.869,237.319 143.367,235.600 143.531 C 234.720 143.615,234.000 143.845,234.000 144.042 C 234.000 144.239,233.508 144.400,232.907 144.400 C 231.818 144.400,231.819 144.397,233.286 143.400 C 234.095 142.850,234.928 142.400,235.136 142.400 C 235.344 142.400,235.618 142.130,235.745 141.800 C 235.871 141.470,236.251 141.200,236.587 141.200 C 236.924 141.200,237.200 140.930,237.200 140.600 C 237.200 140.270,237.470 140.000,237.800 140.000 C 238.130 140.000,238.400 139.820,238.400 139.600 C 238.400 139.118,240.097 137.366,240.450 137.483 C 240.588 137.529,240.700 137.115,240.700 136.564 C 240.700 136.013,241.001 135.342,241.368 135.073 C 241.735 134.804,242.065 134.195,242.101 133.720 C 242.137 133.244,242.296 132.936,242.455 133.034 C 243.026 133.387,243.214 132.400,243.240 128.935 C 243.258 126.447,243.379 125.619,243.653 126.108 C 243.866 126.489,244.211 126.800,244.420 126.800 C 245.078 126.800,244.833 125.633,244.000 124.800 C 243.005 123.805,242.855 120.800,243.800 120.800 C 244.130 120.800,244.400 120.511,244.400 120.157 C 244.400 119.786,244.625 119.601,244.933 119.719 C 245.227 119.832,245.467 119.671,245.467 119.362 C 245.467 119.053,245.227 118.800,244.933 118.800 C 244.640 118.800,244.400 118.440,244.400 118.000 C 244.400 117.467,244.667 117.200,245.200 117.200 C 245.733 117.200,246.000 116.933,246.000 116.400 C 246.000 115.956,245.733 115.600,245.400 115.600 C 245.070 115.600,244.800 115.420,244.800 115.200 C 244.800 114.980,244.955 114.800,245.144 114.800 C 245.334 114.800,245.590 113.945,245.715 112.900 C 245.839 111.855,246.223 110.460,246.568 109.800 C 246.913 109.140,247.196 108.307,247.198 107.949 C 247.199 107.591,247.459 107.083,247.776 106.820 C 248.093 106.557,248.268 106.123,248.166 105.855 C 248.063 105.588,248.344 104.228,248.790 102.832 C 249.235 101.437,249.600 99.890,249.600 99.394 C 249.600 98.897,249.869 97.976,250.198 97.346 C 250.526 96.716,250.796 95.540,250.798 94.733 C 250.799 93.927,250.976 93.207,251.192 93.133 C 251.408 93.060,251.766 92.041,251.988 90.869 C 252.509 88.113,252.682 87.876,253.982 88.136 C 254.579 88.256,255.568 88.094,256.180 87.777 C 256.791 87.460,257.513 87.200,257.784 87.200 C 258.449 87.200,260.724 86.046,261.028 85.555 C 261.182 85.305,261.478 85.333,261.836 85.630 C 262.319 86.031,262.400 84.487,262.400 74.849 L 262.400 63.600 249.800 63.600 C 237.467 63.600,237.200 63.617,237.200 64.400 M194.685 101.878 C 194.861 102.335,193.558 102.646,192.300 102.447 C 192.135 102.421,192.000 102.675,192.000 103.010 C 192.000 103.372,191.497 103.721,190.766 103.867 C 190.087 104.003,189.437 104.358,189.323 104.657 C 189.208 104.956,188.886 105.200,188.606 105.200 C 188.327 105.200,187.874 105.470,187.600 105.800 C 187.326 106.130,186.764 106.400,186.351 106.400 C 185.938 106.400,185.600 106.670,185.600 107.000 C 185.600 107.330,185.262 107.600,184.849 107.600 C 184.436 107.600,183.874 107.870,183.600 108.200 C 183.326 108.530,182.952 108.800,182.768 108.800 C 182.222 108.800,179.200 111.833,179.200 112.381 C 179.200 112.658,178.959 112.793,178.664 112.680 C 178.369 112.567,177.874 112.635,177.564 112.831 C 177.165 113.083,177.146 113.190,177.500 113.194 C 177.775 113.197,178.000 113.380,178.000 113.600 C 178.000 113.820,177.544 114.000,176.987 114.000 C 176.431 114.000,175.871 114.270,175.745 114.600 C 175.618 114.930,175.264 115.200,174.957 115.200 C 174.651 115.200,174.400 115.470,174.400 115.800 C 174.400 116.130,174.220 116.400,174.000 116.400 C 173.479 116.400,172.210 117.676,171.882 118.531 C 171.741 118.899,171.369 119.200,171.055 119.200 C 170.742 119.200,170.378 119.481,170.246 119.825 C 170.114 120.169,169.824 120.339,169.603 120.202 C 169.381 120.065,169.200 120.239,169.200 120.589 C 169.200 120.939,168.930 121.329,168.600 121.455 C 168.262 121.585,168.000 122.181,168.000 122.819 C 168.000 123.443,167.798 124.078,167.551 124.230 C 166.041 125.164,168.576 131.430,171.507 134.010 C 175.997 137.963,180.142 136.291,191.525 125.932 C 193.138 124.465,195.079 122.969,195.838 122.609 C 196.597 122.248,197.114 121.784,196.986 121.577 C 196.858 121.370,197.033 121.200,197.376 121.200 C 197.719 121.200,198.000 120.930,198.000 120.600 C 198.000 120.270,198.270 120.000,198.600 120.000 C 198.933 120.000,199.200 119.644,199.200 119.200 C 199.200 118.760,199.425 118.445,199.700 118.500 C 199.975 118.555,200.155 118.375,200.100 118.100 C 200.045 117.825,200.180 117.600,200.400 117.600 C 200.620 117.600,200.800 117.305,200.800 116.944 C 200.800 116.583,201.115 116.030,201.500 115.714 C 201.928 115.363,201.967 115.253,201.600 115.429 C 201.113 115.663,201.094 115.616,201.500 115.179 C 201.775 114.882,202.000 114.046,202.000 113.320 C 202.000 112.477,202.181 112.036,202.500 112.100 C 203.313 112.263,203.427 105.662,202.616 105.351 C 202.277 105.221,202.000 104.864,202.000 104.557 C 202.000 104.251,201.640 104.000,201.200 104.000 C 200.667 104.000,200.400 103.733,200.400 103.200 C 200.400 102.576,200.133 102.400,199.187 102.400 C 198.521 102.400,197.879 102.150,197.761 101.844 C 197.627 101.494,196.980 101.300,196.016 101.321 C 194.929 101.345,194.543 101.507,194.685 101.878 M219.600 109.400 C 219.600 109.775,219.221 110.000,218.587 110.000 C 218.031 110.000,217.471 110.270,217.345 110.600 C 217.216 110.934,216.622 111.200,216.004 111.200 C 215.230 111.200,214.830 111.442,214.684 112.000 C 214.541 112.546,214.138 112.800,213.414 112.800 C 212.830 112.800,212.461 112.975,212.593 113.188 C 212.725 113.402,212.375 113.691,211.816 113.832 C 211.257 113.972,210.800 114.337,210.800 114.643 C 210.800 114.950,210.530 115.200,210.200 115.200 C 209.870 115.200,209.600 115.470,209.600 115.800 C 209.600 116.130,209.255 116.400,208.833 116.400 C 207.701 116.400,206.773 116.833,207.026 117.242 C 207.148 117.439,206.877 117.600,206.424 117.600 C 205.951 117.600,205.600 117.861,205.600 118.213 C 205.600 118.549,205.330 118.929,205.000 119.055 C 204.670 119.182,204.400 119.556,204.400 119.886 C 204.400 120.255,204.169 120.397,203.800 120.255 C 203.385 120.096,203.200 120.282,203.200 120.862 C 203.200 121.560,203.101 121.616,202.600 121.200 C 202.093 120.779,202.000 120.864,202.000 121.751 C 202.000 122.650,201.828 122.800,200.800 122.800 C 200.000 122.800,199.600 123.000,199.600 123.400 C 199.600 123.739,199.242 124.000,198.776 124.000 C 198.323 124.000,198.056 124.168,198.183 124.372 C 198.309 124.577,198.215 124.867,197.973 125.016 C 197.732 125.166,197.178 126.123,196.742 127.144 C 196.307 128.165,195.449 129.540,194.836 130.200 C 191.995 133.257,191.828 134.328,193.627 137.928 C 197.145 144.969,201.695 145.502,209.400 139.779 C 212.469 137.499,213.035 137.008,216.659 133.491 C 218.448 131.754,219.479 131.063,220.444 130.950 C 221.174 130.865,221.923 130.523,222.110 130.189 C 222.296 129.856,222.649 129.706,222.893 129.857 C 223.181 130.035,223.245 129.895,223.077 129.457 C 222.919 129.044,223.125 128.475,223.609 127.991 C 224.044 127.556,224.400 127.110,224.400 127.000 C 224.400 126.890,224.756 126.444,225.191 126.009 C 225.626 125.574,225.883 124.960,225.762 124.645 C 225.630 124.301,225.857 123.972,226.330 123.822 C 226.910 123.638,227.097 123.258,227.036 122.386 C 226.976 121.509,227.129 121.200,227.627 121.200 C 228.739 121.200,228.692 110.801,227.579 110.510 C 227.150 110.398,226.800 110.137,226.800 109.930 C 226.800 109.722,226.619 109.665,226.397 109.802 C 226.176 109.939,225.886 109.769,225.754 109.425 C 225.410 108.528,219.600 108.504,219.600 109.400 " stroke="none" fill="#dc78b5" fill-rule="evenodd"></path><path id="path2" d="M0.000 200.000 L 0.000 400.000 200.000 400.000 L 400.000 400.000 400.000 200.000 L 400.000 0.000 200.000 0.000 L 0.000 0.000 0.000 200.000 M394.400 200.000 L 394.400 394.400 200.000 394.400 L 5.600 394.400 5.600 200.000 L 5.600 5.600 200.000 5.600 L 394.400 5.600 394.400 200.000 M233.583 76.245 C 233.083 77.561,233.428 79.448,234.224 79.754 C 234.681 79.929,234.800 79.529,234.800 77.811 C 234.800 75.370,234.206 74.606,233.583 76.245 M285.055 83.000 C 284.929 83.330,284.549 83.600,284.213 83.600 C 283.876 83.600,283.600 83.851,283.600 84.157 C 283.600 84.464,283.330 84.818,283.000 84.945 C 282.649 85.079,282.400 85.679,282.400 86.387 C 282.400 87.199,282.201 87.600,281.800 87.600 C 281.470 87.600,281.200 87.870,281.200 88.200 C 281.200 88.530,280.930 88.800,280.600 88.800 C 280.200 88.800,280.000 89.200,280.000 90.000 C 280.000 90.800,279.800 91.200,279.400 91.200 C 279.070 91.200,278.800 91.476,278.800 91.813 C 278.800 92.149,278.541 92.524,278.224 92.646 C 276.605 93.267,277.103 97.121,278.848 97.470 C 279.482 97.596,280.000 97.948,280.000 98.250 C 280.000 98.594,280.448 98.800,281.200 98.800 C 282.000 98.800,282.400 99.000,282.400 99.400 C 282.400 99.730,282.651 100.000,282.957 100.000 C 283.264 100.000,283.618 100.270,283.745 100.600 C 283.871 100.930,284.411 101.200,284.945 101.200 C 285.478 101.200,286.018 101.470,286.145 101.800 C 286.271 102.130,286.629 102.400,286.938 102.400 C 287.248 102.400,287.726 102.670,288.000 103.000 C 288.274 103.330,288.836 103.600,289.249 103.600 C 289.662 103.600,290.000 103.875,290.000 104.210 C 290.000 104.568,290.496 104.919,291.200 105.060 C 291.860 105.192,292.400 105.547,292.400 105.850 C 292.400 106.153,292.741 106.400,293.157 106.400 C 293.574 106.400,294.018 106.670,294.145 107.000 C 294.271 107.330,294.831 107.600,295.387 107.600 C 296.021 107.600,296.400 107.825,296.400 108.200 C 296.400 108.600,296.800 108.800,297.600 108.800 C 298.400 108.800,298.800 109.000,298.800 109.400 C 298.800 109.730,299.070 110.000,299.400 110.000 C 299.730 110.000,300.000 110.270,300.000 110.600 C 300.000 111.000,300.400 111.200,301.200 111.200 C 302.000 111.200,302.400 111.400,302.400 111.800 C 302.400 112.130,302.732 112.400,303.138 112.400 C 303.544 112.400,304.202 112.760,304.600 113.200 C 304.998 113.640,305.547 114.000,305.819 114.000 C 306.092 114.000,306.418 114.270,306.545 114.600 C 306.671 114.930,307.231 115.200,307.787 115.200 C 308.421 115.200,308.800 115.425,308.800 115.800 C 308.800 116.130,309.076 116.400,309.413 116.400 C 309.749 116.400,310.129 116.670,310.255 117.000 C 310.387 117.342,310.983 117.600,311.643 117.600 C 312.405 117.600,312.800 117.805,312.800 118.200 C 312.800 118.600,313.200 118.800,314.000 118.800 C 314.800 118.800,315.200 119.000,315.200 119.400 C 315.200 119.730,315.470 120.000,315.800 120.000 C 316.130 120.000,316.400 120.270,316.400 120.600 C 316.400 121.000,316.800 121.200,317.600 121.200 C 318.393 121.200,318.800 121.401,318.800 121.792 C 318.800 122.118,319.696 122.793,320.792 123.292 C 321.887 123.792,322.787 124.425,322.792 124.700 C 322.797 124.987,323.311 125.200,324.000 125.200 C 324.800 125.200,325.200 125.400,325.200 125.800 C 325.200 126.130,325.451 126.400,325.757 126.400 C 326.064 126.400,326.418 126.670,326.545 127.000 C 326.671 127.330,327.211 127.600,327.745 127.600 C 328.278 127.600,328.818 127.870,328.945 128.200 C 329.079 128.551,329.679 128.800,330.387 128.800 C 331.199 128.800,331.600 128.999,331.600 129.400 C 331.600 129.730,331.870 130.000,332.200 130.000 C 332.530 130.000,332.800 130.256,332.800 130.568 C 332.800 130.881,333.340 131.255,334.000 131.400 C 334.660 131.545,335.200 131.919,335.200 132.232 C 335.200 132.544,335.538 132.800,335.951 132.800 C 336.364 132.800,336.926 133.070,337.200 133.400 C 337.605 133.888,337.586 134.000,337.098 134.000 C 336.768 134.000,336.274 134.270,336.000 134.600 C 335.726 134.930,335.164 135.200,334.751 135.200 C 334.338 135.200,334.000 135.470,334.000 135.800 C 334.000 136.175,333.621 136.400,332.987 136.400 C 332.431 136.400,331.871 136.670,331.745 137.000 C 331.618 137.330,331.264 137.600,330.957 137.600 C 330.651 137.600,330.400 137.851,330.400 138.157 C 330.400 138.769,329.559 139.200,328.367 139.200 C 327.945 139.200,327.600 139.470,327.600 139.800 C 327.600 140.175,327.221 140.400,326.587 140.400 C 326.031 140.400,325.471 140.670,325.345 141.000 C 325.218 141.330,324.864 141.600,324.557 141.600 C 324.251 141.600,324.000 141.870,324.000 142.200 C 324.000 142.600,323.600 142.800,322.800 142.800 C 322.000 142.800,321.600 143.000,321.600 143.400 C 321.600 143.730,321.262 144.000,320.849 144.000 C 320.436 144.000,319.874 144.270,319.600 144.600 C 319.326 144.930,318.764 145.200,318.351 145.200 C 317.938 145.200,317.600 145.456,317.600 145.768 C 317.600 146.081,317.060 146.455,316.400 146.600 C 315.740 146.745,315.200 147.119,315.200 147.432 C 315.200 147.744,314.930 148.000,314.600 148.000 C 314.270 148.000,314.000 148.270,314.000 148.600 C 314.000 149.001,313.599 149.200,312.787 149.200 C 312.079 149.200,311.479 149.449,311.345 149.800 C 311.218 150.130,310.703 150.400,310.200 150.400 C 309.697 150.400,309.182 150.670,309.055 151.000 C 308.929 151.330,308.549 151.600,308.213 151.600 C 307.876 151.600,307.600 151.870,307.600 152.200 C 307.600 152.600,307.200 152.800,306.400 152.800 C 305.600 152.800,305.200 153.000,305.200 153.400 C 305.200 153.730,304.924 154.000,304.587 154.000 C 304.251 154.000,303.871 154.270,303.745 154.600 C 303.618 154.930,303.067 155.200,302.520 155.200 C 301.862 155.200,301.454 155.471,301.316 156.000 C 301.168 156.567,300.770 156.800,299.953 156.800 C 299.195 156.800,298.800 157.005,298.800 157.400 C 298.800 157.730,298.530 158.000,298.200 158.000 C 297.870 158.000,297.600 158.270,297.600 158.600 C 297.600 159.000,297.200 159.200,296.400 159.200 C 295.600 159.200,295.200 159.400,295.200 159.800 C 295.200 160.130,294.862 160.400,294.449 160.400 C 294.036 160.400,293.474 160.670,293.200 161.000 C 292.926 161.330,292.364 161.600,291.951 161.600 C 291.538 161.600,291.200 161.870,291.200 162.200 C 291.200 162.575,290.821 162.800,290.187 162.800 C 289.631 162.800,289.071 163.070,288.945 163.400 C 288.818 163.730,288.464 164.000,288.157 164.000 C 287.851 164.000,287.600 164.360,287.600 164.800 C 287.600 165.448,287.333 165.600,286.200 165.600 C 285.222 165.600,284.800 165.781,284.800 166.200 C 284.800 166.575,284.421 166.800,283.787 166.800 C 283.231 166.800,282.671 167.070,282.545 167.400 C 282.418 167.730,282.064 168.000,281.757 168.000 C 281.451 168.000,281.200 168.270,281.200 168.600 C 281.200 169.000,280.800 169.200,280.000 169.200 C 279.245 169.200,278.800 169.405,278.800 169.753 C 278.800 170.058,278.440 170.401,278.000 170.516 C 277.388 170.676,277.200 171.062,277.200 172.159 C 277.200 173.160,277.442 173.744,278.000 174.093 C 278.440 174.368,278.800 174.819,278.800 175.096 C 278.800 175.373,279.070 175.600,279.400 175.600 C 279.775 175.600,280.000 175.979,280.000 176.613 C 280.000 177.169,280.270 177.729,280.600 177.855 C 280.930 177.982,281.200 178.336,281.200 178.643 C 281.200 178.949,281.450 179.200,281.757 179.200 C 282.063 179.200,282.426 179.650,282.564 180.200 C 282.702 180.750,282.992 181.200,283.208 181.200 C 283.423 181.200,283.600 181.461,283.600 181.779 C 283.600 183.134,285.501 184.508,286.989 184.228 C 287.765 184.083,288.400 183.813,288.400 183.629 C 288.400 183.444,288.760 183.199,289.200 183.084 C 289.640 182.969,290.000 182.588,290.000 182.237 C 290.000 181.796,290.369 181.600,291.200 181.600 C 292.000 181.600,292.400 181.400,292.400 181.000 C 292.400 180.670,292.670 180.400,293.000 180.400 C 293.330 180.400,293.600 180.130,293.600 179.800 C 293.600 179.399,294.001 179.200,294.813 179.200 C 295.521 179.200,296.121 178.951,296.255 178.600 C 296.382 178.270,296.832 178.000,297.255 178.000 C 297.679 178.000,298.129 177.730,298.255 177.400 C 298.382 177.070,298.826 176.800,299.243 176.800 C 299.659 176.800,300.000 176.530,300.000 176.200 C 300.000 175.825,300.379 175.600,301.013 175.600 C 301.569 175.600,302.129 175.330,302.255 175.000 C 302.382 174.670,302.736 174.400,303.043 174.400 C 303.349 174.400,303.600 174.040,303.600 173.600 C 303.600 172.952,303.867 172.800,305.000 172.800 C 305.978 172.800,306.400 172.619,306.400 172.200 C 306.400 171.834,306.773 171.600,307.357 171.600 C 307.884 171.600,308.418 171.330,308.545 171.000 C 308.671 170.670,309.051 170.400,309.387 170.400 C 309.724 170.400,310.000 170.130,310.000 169.800 C 310.000 169.400,310.400 169.200,311.200 169.200 C 312.000 169.200,312.400 169.000,312.400 168.600 C 312.400 168.270,312.676 168.000,313.013 168.000 C 313.349 168.000,313.729 167.730,313.855 167.400 C 313.982 167.070,314.507 166.800,315.023 166.800 C 315.538 166.800,316.104 166.571,316.280 166.292 C 316.456 166.012,317.095 165.566,317.700 165.300 C 318.305 165.035,318.800 164.633,318.800 164.409 C 318.800 164.184,319.070 164.000,319.400 164.000 C 319.730 164.000,320.000 163.730,320.000 163.400 C 320.000 163.000,320.400 162.800,321.200 162.800 C 322.000 162.800,322.400 162.600,322.400 162.200 C 322.400 161.867,322.756 161.600,323.200 161.600 C 323.644 161.600,324.000 161.333,324.000 161.000 C 324.000 160.600,324.400 160.400,325.200 160.400 C 325.970 160.400,326.400 160.196,326.400 159.832 C 326.400 159.519,326.940 159.145,327.600 159.000 C 328.260 158.855,328.800 158.571,328.800 158.368 C 328.800 158.166,329.070 158.000,329.400 158.000 C 329.730 158.000,330.000 157.730,330.000 157.400 C 330.000 157.067,330.356 156.800,330.800 156.800 C 331.240 156.800,331.960 156.440,332.400 156.000 C 332.840 155.560,333.380 155.200,333.600 155.200 C 333.820 155.200,334.000 154.930,334.000 154.600 C 334.000 154.200,334.400 154.000,335.200 154.000 C 336.000 154.000,336.400 153.800,336.400 153.400 C 336.400 153.025,336.779 152.800,337.413 152.800 C 337.969 152.800,338.529 152.530,338.655 152.200 C 338.782 151.870,339.142 151.600,339.455 151.600 C 339.769 151.600,340.129 151.330,340.255 151.000 C 340.382 150.670,340.922 150.400,341.455 150.400 C 341.989 150.400,342.529 150.130,342.655 149.800 C 342.782 149.470,343.136 149.200,343.443 149.200 C 343.749 149.200,344.000 148.840,344.000 148.400 C 344.000 147.778,344.267 147.600,345.200 147.600 C 346.000 147.600,346.400 147.400,346.400 147.000 C 346.400 146.600,346.800 146.400,347.600 146.400 C 348.400 146.400,348.800 146.200,348.800 145.800 C 348.800 145.467,349.156 145.200,349.600 145.200 C 350.044 145.200,350.400 144.933,350.400 144.600 C 350.400 144.200,350.800 144.000,351.600 144.000 C 352.400 144.000,352.800 143.800,352.800 143.400 C 352.800 143.070,353.070 142.800,353.400 142.800 C 353.916 142.800,354.000 141.489,354.000 133.400 L 354.000 124.000 352.800 124.000 C 352.000 124.000,351.600 123.800,351.600 123.400 C 351.600 123.070,351.324 122.800,350.987 122.800 C 350.651 122.800,350.276 122.541,350.154 122.224 C 350.033 121.908,349.408 121.534,348.767 121.393 C 348.125 121.252,347.600 120.881,347.600 120.568 C 347.600 120.204,347.170 120.000,346.400 120.000 C 345.600 120.000,345.200 119.800,345.200 119.400 C 345.200 119.070,344.949 118.800,344.643 118.800 C 344.336 118.800,343.982 118.530,343.855 118.200 C 343.729 117.870,343.169 117.600,342.613 117.600 C 341.979 117.600,341.600 117.375,341.600 117.000 C 341.600 116.670,341.259 116.400,340.843 116.400 C 340.426 116.400,339.982 116.130,339.855 115.800 C 339.729 115.470,339.169 115.200,338.613 115.200 C 337.979 115.200,337.600 114.975,337.600 114.600 C 337.600 114.200,337.200 114.000,336.400 114.000 C 335.723 114.000,335.200 113.787,335.200 113.513 C 335.200 112.828,333.216 111.200,332.381 111.200 C 331.998 111.200,331.582 110.930,331.455 110.600 C 331.329 110.270,330.859 110.000,330.413 110.000 C 329.966 110.000,329.600 109.823,329.600 109.608 C 329.600 109.392,329.150 109.102,328.600 108.964 C 328.050 108.826,327.600 108.463,327.600 108.157 C 327.600 107.805,327.158 107.600,326.400 107.600 C 325.600 107.600,325.200 107.400,325.200 107.000 C 325.200 106.670,324.924 106.400,324.587 106.400 C 324.251 106.400,323.871 106.130,323.745 105.800 C 323.613 105.458,323.017 105.200,322.357 105.200 C 321.587 105.200,321.200 104.996,321.200 104.590 C 321.200 104.232,320.704 103.881,320.000 103.740 C 319.340 103.608,318.800 103.253,318.800 102.950 C 318.800 102.647,318.549 102.400,318.243 102.400 C 317.936 102.400,317.582 102.130,317.455 101.800 C 317.329 101.470,316.769 101.200,316.213 101.200 C 315.579 101.200,315.200 100.975,315.200 100.600 C 315.200 100.270,314.859 100.000,314.443 100.000 C 314.026 100.000,313.582 99.730,313.455 99.400 C 313.329 99.070,312.769 98.800,312.213 98.800 C 311.579 98.800,311.200 98.575,311.200 98.200 C 311.200 97.800,310.800 97.600,310.000 97.600 C 309.200 97.600,308.800 97.400,308.800 97.000 C 308.800 96.670,308.530 96.400,308.200 96.400 C 307.870 96.400,307.600 96.144,307.600 95.832 C 307.600 95.519,307.075 95.148,306.433 95.007 C 305.792 94.866,305.167 94.492,305.046 94.176 C 304.924 93.859,304.459 93.600,304.013 93.600 C 303.566 93.600,303.200 93.423,303.200 93.208 C 303.200 92.992,302.750 92.702,302.200 92.564 C 301.650 92.426,301.200 92.063,301.200 91.757 C 301.200 91.405,300.758 91.200,300.000 91.200 C 299.200 91.200,298.800 91.000,298.800 90.600 C 298.800 90.270,298.524 90.000,298.187 90.000 C 297.851 90.000,297.471 89.730,297.345 89.400 C 297.213 89.058,296.617 88.800,295.957 88.800 C 295.195 88.800,294.800 88.595,294.800 88.200 C 294.800 87.868,294.445 87.600,294.003 87.600 C 293.565 87.600,292.982 87.240,292.707 86.800 C 292.432 86.360,292.000 86.000,291.747 86.000 C 291.493 86.000,291.182 85.730,291.055 85.400 C 290.929 85.070,290.369 84.800,289.813 84.800 C 289.179 84.800,288.800 84.575,288.800 84.200 C 288.800 83.870,288.459 83.600,288.043 83.600 C 287.626 83.600,287.182 83.330,287.055 83.000 C 286.929 82.670,286.479 82.400,286.055 82.400 C 285.632 82.400,285.182 82.670,285.055 83.000 M111.800 83.913 C 111.360 84.003,110.829 84.240,110.620 84.439 C 110.411 84.637,109.916 84.800,109.520 84.800 C 109.124 84.800,108.800 85.056,108.800 85.368 C 108.800 85.681,108.260 86.055,107.600 86.200 C 106.940 86.345,106.400 86.719,106.400 87.032 C 106.400 87.344,106.130 87.600,105.800 87.600 C 105.470 87.600,105.200 87.870,105.200 88.200 C 105.200 88.619,104.778 88.800,103.800 88.800 C 102.822 88.800,102.400 88.981,102.400 89.400 C 102.400 89.730,102.062 90.000,101.649 90.000 C 101.236 90.000,100.674 90.270,100.400 90.600 C 100.126 90.930,99.654 91.200,99.351 91.200 C 99.048 91.200,98.800 91.470,98.800 91.800 C 98.800 92.200,98.400 92.400,97.600 92.400 C 96.800 92.400,96.400 92.600,96.400 93.000 C 96.400 93.330,96.124 93.600,95.787 93.600 C 95.451 93.600,95.079 93.850,94.962 94.155 C 94.845 94.460,94.220 94.816,93.574 94.945 C 92.891 95.082,92.400 95.435,92.400 95.790 C 92.400 96.201,92.009 96.400,91.200 96.400 C 90.400 96.400,90.000 96.600,90.000 97.000 C 90.000 97.330,89.730 97.600,89.400 97.600 C 89.070 97.600,88.800 97.870,88.800 98.200 C 88.800 98.595,88.405 98.800,87.643 98.800 C 86.983 98.800,86.387 99.058,86.255 99.400 C 86.129 99.730,85.654 100.000,85.200 100.000 C 84.746 100.000,84.271 100.270,84.145 100.600 C 84.018 100.930,83.574 101.200,83.157 101.200 C 82.741 101.200,82.400 101.470,82.400 101.800 C 82.400 102.175,82.021 102.400,81.387 102.400 C 80.831 102.400,80.271 102.670,80.145 103.000 C 80.018 103.330,79.664 103.600,79.357 103.600 C 79.051 103.600,78.800 103.960,78.800 104.400 C 78.800 105.048,78.533 105.200,77.400 105.200 C 76.422 105.200,76.000 105.381,76.000 105.800 C 76.000 106.175,75.621 106.400,74.987 106.400 C 74.431 106.400,73.871 106.670,73.745 107.000 C 73.618 107.330,73.264 107.600,72.957 107.600 C 72.651 107.600,72.400 107.870,72.400 108.200 C 72.400 108.600,72.000 108.800,71.200 108.800 C 70.400 108.800,70.000 109.000,70.000 109.400 C 70.000 109.730,69.662 110.000,69.249 110.000 C 68.836 110.000,68.274 110.270,68.000 110.600 C 67.726 110.930,67.248 111.200,66.938 111.200 C 66.629 111.200,66.276 111.459,66.154 111.776 C 66.033 112.092,65.408 112.466,64.767 112.607 C 64.125 112.748,63.600 113.119,63.600 113.432 C 63.600 113.744,63.330 114.000,63.000 114.000 C 62.670 114.000,62.400 114.270,62.400 114.600 C 62.400 115.001,61.999 115.200,61.187 115.200 C 60.479 115.200,59.879 115.449,59.745 115.800 C 59.618 116.130,59.078 116.400,58.545 116.400 C 58.011 116.400,57.471 116.670,57.345 117.000 C 57.218 117.330,56.864 117.600,56.557 117.600 C 56.251 117.600,56.000 117.870,56.000 118.200 C 56.000 118.600,55.600 118.800,54.800 118.800 C 54.100 118.800,53.600 119.011,53.600 119.305 C 53.600 119.798,52.936 120.249,50.700 121.272 C 50.095 121.549,49.600 122.006,49.600 122.288 C 49.600 122.590,49.109 122.800,48.400 122.800 C 47.600 122.800,47.200 123.000,47.200 123.400 C 47.200 123.730,46.930 124.000,46.600 124.000 C 46.270 124.000,46.000 124.270,46.000 124.600 C 46.000 124.994,45.606 125.200,44.852 125.200 C 43.365 125.200,43.209 126.095,43.209 134.600 C 43.209 141.828,43.450 144.000,44.252 144.000 C 44.554 144.000,44.800 144.270,44.800 144.600 C 44.800 145.000,45.200 145.200,46.000 145.200 C 46.800 145.200,47.200 145.400,47.200 145.800 C 47.200 146.133,47.556 146.400,48.000 146.400 C 48.440 146.400,48.800 146.568,48.800 146.773 C 48.800 146.978,49.205 147.274,49.700 147.430 C 50.195 147.587,50.835 148.049,51.123 148.457 C 51.410 148.866,52.085 149.200,52.623 149.200 C 53.225 149.200,53.600 149.430,53.600 149.800 C 53.600 150.130,53.851 150.400,54.157 150.400 C 54.464 150.400,54.818 150.670,54.945 151.000 C 55.071 151.330,55.631 151.600,56.187 151.600 C 56.821 151.600,57.200 151.825,57.200 152.200 C 57.200 152.530,57.538 152.800,57.951 152.800 C 58.364 152.800,58.926 153.070,59.200 153.400 C 59.474 153.730,60.036 154.000,60.449 154.000 C 60.862 154.000,61.200 154.270,61.200 154.600 C 61.200 155.000,61.600 155.200,62.400 155.200 C 63.107 155.200,63.600 155.410,63.600 155.711 C 63.600 156.407,64.968 157.527,66.194 157.834 C 66.747 157.973,67.200 158.244,67.200 158.436 C 67.200 158.628,68.096 159.193,69.192 159.692 C 70.287 160.192,71.187 160.825,71.192 161.100 C 71.197 161.387,71.711 161.600,72.400 161.600 C 73.200 161.600,73.600 161.800,73.600 162.200 C 73.600 162.530,73.851 162.800,74.157 162.800 C 74.464 162.800,74.818 163.070,74.945 163.400 C 75.071 163.730,75.587 164.000,76.091 164.000 C 76.595 164.000,77.232 164.360,77.507 164.800 C 77.782 165.240,78.371 165.600,78.816 165.600 C 79.261 165.600,79.729 165.870,79.855 166.200 C 79.982 166.530,80.317 166.800,80.600 166.800 C 80.883 166.800,81.218 167.070,81.345 167.400 C 81.471 167.730,82.031 168.000,82.587 168.000 C 83.221 168.000,83.600 168.225,83.600 168.600 C 83.600 168.930,83.876 169.200,84.213 169.200 C 84.549 169.200,84.929 169.470,85.055 169.800 C 85.187 170.142,85.783 170.400,86.443 170.400 C 87.205 170.400,87.600 170.605,87.600 171.000 C 87.600 171.366,87.973 171.600,88.557 171.600 C 89.084 171.600,89.618 171.870,89.745 172.200 C 89.871 172.530,90.251 172.800,90.587 172.800 C 90.924 172.800,91.200 173.075,91.200 173.410 C 91.200 173.765,91.691 174.118,92.374 174.255 C 93.020 174.384,93.645 174.740,93.762 175.045 C 93.879 175.350,94.231 175.600,94.545 175.600 C 94.858 175.600,95.218 175.870,95.345 176.200 C 95.471 176.530,96.031 176.800,96.587 176.800 C 97.221 176.800,97.600 177.025,97.600 177.400 C 97.600 177.775,97.979 178.000,98.613 178.000 C 99.169 178.000,99.729 178.270,99.855 178.600 C 99.982 178.930,100.336 179.200,100.643 179.200 C 100.949 179.200,101.200 179.470,101.200 179.800 C 101.200 180.195,101.595 180.400,102.357 180.400 C 103.017 180.400,103.613 180.658,103.745 181.000 C 103.871 181.330,104.251 181.600,104.587 181.600 C 104.924 181.600,105.200 181.856,105.200 182.168 C 105.200 182.481,105.725 182.852,106.367 182.993 C 107.008 183.134,107.633 183.508,107.754 183.824 C 107.876 184.141,108.411 184.400,108.945 184.400 C 109.478 184.400,110.018 184.670,110.145 185.000 C 110.437 185.761,112.400 185.802,112.400 185.047 C 112.400 184.742,112.760 184.399,113.200 184.284 C 113.640 184.169,114.000 183.807,114.000 183.480 C 114.000 183.153,114.270 182.782,114.600 182.655 C 114.930 182.529,115.200 181.969,115.200 181.413 C 115.200 180.779,115.425 180.400,115.800 180.400 C 116.130 180.400,116.400 180.130,116.400 179.800 C 116.400 179.470,116.670 179.200,117.000 179.200 C 117.330 179.200,117.600 178.949,117.600 178.643 C 117.600 178.336,117.870 177.982,118.200 177.855 C 118.530 177.729,118.800 177.169,118.800 176.613 C 118.800 175.979,119.025 175.600,119.400 175.600 C 119.853 175.600,120.000 175.111,120.000 173.600 C 120.000 172.157,119.845 171.600,119.443 171.600 C 119.136 171.600,118.782 171.330,118.655 171.000 C 118.529 170.670,117.969 170.400,117.413 170.400 C 116.779 170.400,116.400 170.175,116.400 169.800 C 116.400 169.470,116.059 169.200,115.643 169.200 C 115.226 169.200,114.782 168.930,114.655 168.600 C 114.529 168.270,113.969 168.000,113.413 168.000 C 112.779 168.000,112.400 167.775,112.400 167.400 C 112.400 167.000,112.000 166.800,111.200 166.800 C 110.400 166.800,110.000 166.600,110.000 166.200 C 110.000 165.870,109.730 165.600,109.400 165.600 C 109.070 165.600,108.800 165.344,108.800 165.032 C 108.800 164.719,108.275 164.348,107.633 164.207 C 106.992 164.066,106.367 163.692,106.246 163.376 C 106.124 163.059,105.659 162.800,105.213 162.800 C 104.766 162.800,104.400 162.623,104.400 162.408 C 104.400 162.192,103.950 161.902,103.400 161.764 C 102.850 161.626,102.400 161.263,102.400 160.957 C 102.400 160.605,101.958 160.400,101.200 160.400 C 100.400 160.400,100.000 160.200,100.000 159.800 C 100.000 159.470,99.749 159.200,99.443 159.200 C 99.136 159.200,98.782 158.930,98.655 158.600 C 98.529 158.270,97.989 158.000,97.455 158.000 C 96.922 158.000,96.382 157.730,96.255 157.400 C 96.129 157.070,95.661 156.800,95.216 156.800 C 94.771 156.800,94.182 156.440,93.907 156.000 C 93.632 155.560,93.200 155.200,92.947 155.200 C 92.693 155.200,92.382 154.930,92.255 154.600 C 92.129 154.270,91.569 154.000,91.013 154.000 C 90.379 154.000,90.000 153.775,90.000 153.400 C 90.000 153.070,89.659 152.800,89.243 152.800 C 88.826 152.800,88.382 152.530,88.255 152.200 C 88.129 151.870,87.569 151.600,87.013 151.600 C 86.379 151.600,86.000 151.375,86.000 151.000 C 86.000 150.600,85.600 150.400,84.800 150.400 C 84.000 150.400,83.600 150.200,83.600 149.800 C 83.600 149.470,83.330 149.200,83.000 149.200 C 82.670 149.200,82.400 148.930,82.400 148.600 C 82.400 148.205,82.005 148.000,81.247 148.000 C 80.430 148.000,80.032 147.767,79.884 147.200 C 79.759 146.721,79.338 146.400,78.837 146.400 C 78.377 146.400,78.000 146.223,78.000 146.008 C 78.000 145.792,77.550 145.502,77.000 145.364 C 76.450 145.226,76.000 144.863,76.000 144.557 C 76.000 144.205,75.558 144.000,74.800 144.000 C 74.000 144.000,73.600 143.800,73.600 143.400 C 73.600 143.070,73.349 142.800,73.043 142.800 C 72.736 142.800,72.382 142.530,72.255 142.200 C 72.129 141.870,71.589 141.600,71.055 141.600 C 70.522 141.600,69.982 141.330,69.855 141.000 C 69.729 140.670,69.371 140.400,69.062 140.400 C 68.752 140.400,68.274 140.130,68.000 139.800 C 67.726 139.470,67.185 139.200,66.798 139.200 C 66.410 139.200,65.999 138.840,65.884 138.400 C 65.743 137.859,65.338 137.600,64.637 137.600 C 63.982 137.600,63.600 137.379,63.600 137.000 C 63.600 136.670,63.259 136.400,62.843 136.400 C 62.426 136.400,61.982 136.130,61.855 135.800 C 61.729 135.470,61.355 135.200,61.025 135.200 C 60.656 135.200,60.514 134.969,60.655 134.600 C 60.782 134.270,61.142 134.000,61.455 134.000 C 61.769 134.000,62.129 133.730,62.255 133.400 C 62.382 133.070,62.922 132.800,63.455 132.800 C 63.989 132.800,64.529 132.530,64.655 132.200 C 64.782 131.870,65.135 131.600,65.439 131.600 C 65.744 131.600,66.218 131.240,66.493 130.800 C 66.768 130.360,67.309 130.000,67.696 130.000 C 68.083 130.000,68.400 129.730,68.400 129.400 C 68.400 128.999,68.801 128.800,69.613 128.800 C 70.321 128.800,70.921 128.551,71.055 128.200 C 71.182 127.870,71.536 127.600,71.843 127.600 C 72.149 127.600,72.400 127.330,72.400 127.000 C 72.400 126.600,72.800 126.400,73.600 126.400 C 74.400 126.400,74.800 126.200,74.800 125.800 C 74.800 125.425,75.179 125.200,75.813 125.200 C 76.369 125.200,76.929 124.930,77.055 124.600 C 77.182 124.270,77.542 124.000,77.855 124.000 C 78.169 124.000,78.521 123.750,78.638 123.445 C 78.755 123.140,79.380 122.784,80.026 122.655 C 80.672 122.526,81.200 122.165,81.200 121.853 C 81.200 121.542,81.650 121.174,82.200 121.036 C 82.750 120.898,83.200 120.608,83.200 120.392 C 83.200 120.177,83.560 120.000,84.000 120.000 C 84.444 120.000,84.800 119.733,84.800 119.400 C 84.800 119.000,85.200 118.800,86.000 118.800 C 86.800 118.800,87.200 118.600,87.200 118.200 C 87.200 117.867,87.556 117.600,88.000 117.600 C 88.444 117.600,88.800 117.333,88.800 117.000 C 88.800 116.600,89.200 116.400,90.000 116.400 C 90.800 116.400,91.200 116.200,91.200 115.800 C 91.200 115.470,91.547 115.200,91.971 115.200 C 92.396 115.200,93.013 114.930,93.343 114.600 C 93.673 114.270,94.136 114.000,94.371 114.000 C 94.607 114.000,94.800 113.640,94.800 113.200 C 94.800 112.552,95.067 112.400,96.200 112.400 C 97.178 112.400,97.600 112.219,97.600 111.800 C 97.600 111.434,97.973 111.200,98.557 111.200 C 99.084 111.200,99.618 110.930,99.745 110.600 C 99.871 110.270,100.251 110.000,100.587 110.000 C 100.924 110.000,101.200 109.730,101.200 109.400 C 101.200 109.000,101.600 108.800,102.400 108.800 C 103.200 108.800,103.600 108.600,103.600 108.200 C 103.600 107.870,103.876 107.600,104.213 107.600 C 104.549 107.600,104.929 107.330,105.055 107.000 C 105.182 106.670,105.722 106.400,106.255 106.400 C 106.789 106.400,107.324 106.141,107.446 105.824 C 107.567 105.508,108.192 105.134,108.833 104.993 C 109.475 104.852,110.000 104.481,110.000 104.168 C 110.000 103.856,110.270 103.600,110.600 103.600 C 110.930 103.600,111.200 103.330,111.200 103.000 C 111.200 102.599,111.601 102.400,112.413 102.400 C 113.121 102.400,113.721 102.151,113.855 101.800 C 113.982 101.470,114.432 101.200,114.855 101.200 C 115.279 101.200,115.729 100.930,115.855 100.600 C 115.982 100.270,116.426 100.000,116.843 100.000 C 117.259 100.000,117.600 99.742,117.600 99.427 C 117.600 99.098,118.070 98.799,118.700 98.727 C 120.037 98.573,120.666 94.230,119.420 93.752 C 119.079 93.621,118.800 93.264,118.800 92.957 C 118.800 92.651,118.530 92.400,118.200 92.400 C 117.800 92.400,117.600 92.000,117.600 91.200 C 117.600 90.442,117.395 90.000,117.043 90.000 C 116.737 90.000,116.374 89.550,116.236 89.000 C 116.098 88.450,115.808 88.000,115.592 88.000 C 115.377 88.000,115.200 87.730,115.200 87.400 C 115.200 87.070,114.840 86.440,114.400 86.000 C 113.960 85.560,113.600 84.949,113.600 84.643 C 113.600 83.974,112.892 83.687,111.800 83.913 M260.900 88.700 C 260.112 88.963,260.317 90.000,261.157 90.000 C 261.758 90.000,262.400 89.295,262.400 88.634 C 262.400 88.475,261.450 88.517,260.900 88.700 M253.450 89.919 C 253.065 90.542,253.927 91.433,254.428 90.932 C 254.682 90.678,254.769 90.274,254.622 90.035 C 254.306 89.524,253.730 89.467,253.450 89.919 M241.043 90.633 C 240.700 91.527,240.727 91.600,241.400 91.600 C 241.733 91.600,242.000 91.244,242.000 90.800 C 242.000 89.846,241.386 89.739,241.043 90.633 M252.900 94.623 C 252.320 95.253,252.241 96.000,252.753 96.000 C 253.061 96.000,253.710 94.365,253.484 94.158 C 253.438 94.115,253.175 94.325,252.900 94.623 M238.814 101.574 C 238.261 102.607,238.290 102.800,239.000 102.800 C 239.373 102.800,239.600 102.422,239.600 101.800 C 239.600 100.600,239.371 100.534,238.814 101.574 M249.600 103.000 C 249.600 103.330,249.870 103.600,250.200 103.600 C 250.530 103.600,250.800 103.330,250.800 103.000 C 250.800 102.670,250.530 102.400,250.200 102.400 C 249.870 102.400,249.600 102.670,249.600 103.000 M237.467 106.667 C 236.979 107.154,237.191 108.000,237.800 108.000 C 238.133 108.000,238.400 107.644,238.400 107.200 C 238.400 106.403,237.974 106.160,237.467 106.667 M248.400 107.987 C 248.400 108.523,248.592 108.701,249.000 108.545 C 249.330 108.418,249.600 108.064,249.600 107.757 C 249.600 107.451,249.330 107.200,249.000 107.200 C 248.670 107.200,248.400 107.554,248.400 107.987 M247.200 111.833 C 247.200 112.540,248.061 112.417,248.308 111.675 C 248.395 111.414,248.182 111.200,247.833 111.200 C 247.485 111.200,247.200 111.485,247.200 111.833 M228.400 112.157 C 228.400 112.464,228.674 112.820,229.009 112.948 C 229.506 113.139,229.541 113.036,229.195 112.391 C 228.699 111.464,228.400 111.376,228.400 112.157 M228.851 117.160 C 228.549 117.351,228.384 117.753,228.484 118.053 C 228.611 118.432,228.812 118.325,229.147 117.699 C 229.679 116.705,229.651 116.654,228.851 117.160 M166.000 123.400 C 165.592 123.891,165.620 124.000,166.151 124.000 C 166.508 124.000,166.800 123.730,166.800 123.400 C 166.800 123.070,166.732 122.800,166.649 122.800 C 166.566 122.800,166.274 123.070,166.000 123.400 M228.667 129.467 C 228.153 129.981,228.399 130.775,229.000 130.545 C 229.330 130.418,229.600 130.064,229.600 129.757 C 229.600 129.169,229.115 129.018,228.667 129.467 M127.867 259.867 C 127.720 260.013,127.600 261.183,127.600 262.467 L 127.600 264.800 131.000 264.800 L 134.400 264.800 134.400 276.376 C 134.400 283.663,134.548 288.044,134.800 288.200 C 135.020 288.336,135.200 289.399,135.200 290.561 C 135.200 293.103,136.366 294.800,138.113 294.800 C 138.772 294.800,139.200 295.018,139.200 295.353 C 139.200 296.079,140.456 296.389,143.400 296.389 C 146.344 296.389,147.600 296.079,147.600 295.353 C 147.600 295.005,148.045 294.800,148.800 294.800 C 149.813 294.800,150.000 294.644,150.000 293.800 C 150.000 293.250,149.820 292.800,149.600 292.800 C 149.380 292.800,149.200 292.170,149.200 291.400 L 149.200 290.000 145.454 290.000 L 141.709 290.000 141.454 288.144 C 141.314 287.123,141.200 280.528,141.200 273.488 C 141.200 261.767,141.141 260.643,140.500 260.157 C 139.759 259.594,128.400 259.333,127.867 259.867 M199.100 259.876 C 198.481 260.038,198.400 260.632,198.400 265.029 C 198.400 269.733,198.357 270.000,197.600 270.000 C 197.160 270.000,196.800 269.751,196.800 269.447 C 196.800 268.826,195.598 268.411,193.800 268.411 C 192.002 268.411,190.800 268.826,190.800 269.447 C 190.800 269.812,190.325 270.000,189.400 270.000 C 188.422 270.000,188.000 270.181,188.000 270.600 C 188.000 270.930,187.730 271.200,187.400 271.200 C 187.070 271.200,186.800 271.470,186.800 271.800 C 186.800 272.130,186.530 272.400,186.200 272.400 C 185.870 272.400,185.600 272.670,185.600 273.000 C 185.600 273.330,185.330 273.600,185.000 273.600 C 184.599 273.600,184.400 274.001,184.400 274.813 C 184.400 275.521,184.151 276.121,183.800 276.255 C 183.304 276.446,183.200 277.518,183.200 282.455 C 183.200 287.393,183.304 288.465,183.800 288.655 C 184.137 288.785,184.400 289.380,184.400 290.014 C 184.400 290.635,184.670 291.413,185.000 291.743 C 185.330 292.073,185.600 292.626,185.600 292.971 C 185.600 293.317,185.870 293.600,186.200 293.600 C 186.530 293.600,186.800 293.870,186.800 294.200 C 186.800 294.639,187.256 294.800,188.504 294.800 C 189.774 294.800,190.335 295.003,190.707 295.600 C 191.098 296.226,191.640 296.400,193.203 296.400 C 194.667 296.400,195.414 296.186,196.000 295.600 C 196.688 294.912,197.333 294.800,200.600 294.800 L 204.400 294.800 204.400 277.200 L 204.400 259.600 202.100 259.646 C 200.835 259.672,199.485 259.775,199.100 259.876 M78.800 266.800 L 78.800 270.000 75.600 270.000 L 72.400 270.000 72.400 272.400 L 72.400 274.800 75.600 274.800 L 78.800 274.800 78.800 283.600 C 78.800 291.156,78.885 292.400,79.400 292.400 C 79.730 292.400,80.000 292.670,80.000 293.000 C 80.000 293.330,80.270 293.600,80.600 293.600 C 80.930 293.600,81.200 293.870,81.200 294.200 C 81.200 294.600,81.600 294.800,82.400 294.800 C 83.183 294.800,83.600 295.002,83.600 295.382 C 83.600 296.688,91.245 296.773,92.192 295.478 C 92.465 295.105,93.163 294.800,93.744 294.800 C 94.709 294.800,94.800 294.663,94.800 293.200 C 94.800 290.466,93.956 290.000,89.000 290.000 L 84.800 290.000 84.800 282.400 L 84.800 274.800 88.600 274.800 L 92.400 274.800 92.400 272.400 L 92.400 270.000 88.600 270.000 L 84.800 270.000 84.800 266.800 L 84.800 263.600 81.800 263.600 L 78.800 263.600 78.800 266.800 M54.100 268.665 C 53.825 268.776,53.600 269.122,53.600 269.433 C 53.600 269.810,53.148 270.000,52.249 270.000 C 51.506 270.000,50.674 270.270,50.400 270.600 C 50.126 270.930,49.650 271.200,49.341 271.200 C 49.032 271.200,48.673 271.736,48.542 272.391 C 48.411 273.046,48.055 273.788,47.752 274.040 C 46.969 274.689,47.008 278.351,47.800 278.655 C 48.142 278.787,48.400 279.383,48.400 280.043 C 48.400 280.805,48.605 281.200,49.000 281.200 C 49.330 281.200,49.600 281.470,49.600 281.800 C 49.600 282.133,49.956 282.400,50.400 282.400 C 50.844 282.400,51.200 282.667,51.200 283.000 C 51.200 283.444,51.667 283.600,53.000 283.600 C 54.333 283.600,54.800 283.756,54.800 284.200 C 54.800 284.642,55.262 284.800,56.557 284.800 C 57.750 284.800,58.388 284.993,58.545 285.400 C 58.679 285.751,59.279 286.000,59.987 286.000 C 61.107 286.000,61.200 286.108,61.200 287.400 C 61.200 288.330,61.013 288.800,60.643 288.800 C 60.336 288.800,59.982 289.070,59.855 289.400 C 59.677 289.864,58.899 290.000,56.413 290.000 C 53.824 290.000,53.200 289.884,53.200 289.400 C 53.200 289.005,52.805 288.800,52.043 288.800 C 51.383 288.800,50.787 288.542,50.655 288.200 C 50.529 287.870,50.079 287.600,49.655 287.600 C 49.232 287.600,48.782 287.870,48.655 288.200 C 48.529 288.530,48.149 288.800,47.813 288.800 C 47.476 288.800,47.200 289.070,47.200 289.400 C 47.200 289.730,46.930 290.000,46.600 290.000 C 46.200 290.000,46.000 290.400,46.000 291.200 C 46.000 292.000,46.200 292.400,46.600 292.400 C 46.930 292.400,47.200 292.670,47.200 293.000 C 47.200 293.330,47.451 293.600,47.757 293.600 C 48.064 293.600,48.418 293.870,48.545 294.200 C 48.701 294.608,49.340 294.800,50.541 294.800 C 51.970 294.800,52.347 294.952,52.516 295.600 C 52.707 296.329,53.062 296.400,56.509 296.400 C 59.686 296.400,60.455 296.272,61.309 295.600 C 61.869 295.160,62.883 294.800,63.563 294.800 C 64.396 294.800,64.800 294.604,64.800 294.200 C 64.800 293.870,65.070 293.600,65.400 293.600 C 65.730 293.600,66.000 293.330,66.000 293.000 C 66.000 292.670,66.270 292.400,66.600 292.400 C 67.058 292.400,67.200 291.898,67.200 290.280 C 67.200 289.114,67.396 287.964,67.635 287.725 C 67.948 287.412,67.948 287.215,67.635 287.022 C 67.396 286.874,67.200 285.858,67.200 284.764 C 67.200 283.365,67.022 282.707,66.600 282.545 C 66.270 282.418,66.000 282.064,66.000 281.757 C 66.000 281.405,65.559 281.200,64.800 281.200 C 64.000 281.200,63.600 281.000,63.600 280.600 C 63.600 280.147,63.111 280.000,61.600 280.000 C 60.089 280.000,59.600 279.853,59.600 279.400 C 59.600 278.956,59.133 278.800,57.800 278.800 C 56.606 278.800,56.000 278.628,56.000 278.289 C 56.000 278.008,55.653 277.481,55.230 277.118 C 54.739 276.698,54.538 276.158,54.676 275.629 C 54.961 274.542,62.400 274.321,62.400 275.400 C 62.400 275.844,62.867 276.000,64.200 276.000 C 65.533 276.000,66.000 275.844,66.000 275.400 C 66.000 275.070,66.270 274.800,66.600 274.800 C 67.044 274.800,67.200 274.333,67.200 273.000 C 67.200 271.728,67.037 271.200,66.643 271.200 C 66.336 271.200,65.982 270.930,65.855 270.600 C 65.694 270.180,65.039 270.000,63.675 270.000 C 62.232 270.000,61.535 269.792,61.000 269.200 C 60.294 268.420,55.607 268.057,54.100 268.665 M165.100 268.676 C 164.715 268.776,164.400 269.115,164.400 269.429 C 164.400 269.811,163.952 270.000,163.043 270.000 C 162.205 270.000,161.597 270.230,161.455 270.600 C 161.329 270.930,160.769 271.200,160.213 271.200 C 159.579 271.200,159.200 271.425,159.200 271.800 C 159.200 272.130,158.930 272.400,158.600 272.400 C 158.200 272.400,158.000 272.800,158.000 273.600 C 158.000 274.400,157.800 274.800,157.400 274.800 C 156.928 274.800,156.800 275.356,156.800 277.400 C 156.800 278.909,156.628 280.000,156.390 280.000 C 155.724 280.000,155.128 282.088,155.392 283.496 C 155.535 284.258,155.878 284.800,156.218 284.800 C 156.668 284.800,156.800 285.392,156.800 287.400 C 156.800 289.444,156.928 290.000,157.400 290.000 C 157.800 290.000,158.000 290.400,158.000 291.200 C 158.000 292.000,158.200 292.400,158.600 292.400 C 158.930 292.400,159.200 292.670,159.200 293.000 C 159.200 293.375,159.579 293.600,160.213 293.600 C 160.769 293.600,161.329 293.870,161.455 294.200 C 161.597 294.570,162.205 294.800,163.043 294.800 C 163.932 294.800,164.400 294.991,164.400 295.353 C 164.400 296.035,165.632 296.389,168.000 296.389 C 170.368 296.389,171.600 296.035,171.600 295.353 C 171.600 294.964,172.136 294.800,173.413 294.800 C 174.655 294.800,175.298 294.611,175.455 294.200 C 175.582 293.870,175.936 293.600,176.243 293.600 C 176.834 293.600,177.005 291.406,176.548 289.700 C 176.245 288.570,171.600 288.289,171.600 289.400 C 171.600 289.879,171.005 290.000,168.643 290.000 C 166.383 290.000,165.631 289.858,165.455 289.400 C 165.329 289.070,164.949 288.800,164.613 288.800 C 164.276 288.800,164.000 288.530,164.000 288.200 C 164.000 287.870,163.730 287.600,163.400 287.600 C 162.981 287.600,162.800 287.178,162.800 286.200 L 162.800 284.800 170.400 284.800 L 178.000 284.800 178.000 279.987 C 178.000 276.079,177.887 275.132,177.400 274.945 C 177.070 274.818,176.800 274.402,176.800 274.019 C 176.800 273.211,175.181 271.200,174.530 271.200 C 174.286 271.200,173.982 270.930,173.855 270.600 C 173.703 270.204,173.077 270.000,172.013 270.000 C 170.901 270.000,170.400 269.827,170.400 269.443 C 170.400 268.498,167.427 268.068,165.100 268.676 M100.000 271.751 C 100.000 272.820,100.234 273.696,100.600 274.000 C 100.930 274.274,101.200 275.106,101.200 275.849 C 101.200 276.783,101.385 277.200,101.800 277.200 C 102.245 277.200,102.400 277.668,102.400 279.013 C 102.400 280.255,102.589 280.898,103.000 281.055 C 103.336 281.184,103.600 281.780,103.600 282.410 C 103.600 283.940,103.975 284.800,104.643 284.800 C 105.037 284.800,105.200 285.330,105.200 286.613 C 105.200 287.855,105.389 288.498,105.800 288.655 C 106.207 288.812,106.400 289.450,106.400 290.643 C 106.400 291.938,106.558 292.400,107.000 292.400 C 107.400 292.400,107.600 292.800,107.600 293.600 C 107.600 294.400,107.800 294.800,108.200 294.800 C 108.533 294.800,108.800 295.156,108.800 295.600 C 108.800 296.044,108.533 296.400,108.200 296.400 C 107.870 296.400,107.600 296.670,107.600 297.000 C 107.600 297.330,107.330 297.600,107.000 297.600 C 106.670 297.600,106.400 297.870,106.400 298.200 C 106.400 298.632,105.958 298.800,104.820 298.800 C 103.935 298.800,103.099 299.033,102.920 299.330 C 102.744 299.622,102.285 299.976,101.900 300.118 C 101.054 300.429,100.958 302.222,101.771 302.534 C 102.085 302.654,102.400 303.258,102.471 303.876 C 102.645 305.395,105.835 305.765,107.179 304.421 C 107.631 303.969,108.450 303.600,109.000 303.600 C 109.622 303.600,110.000 303.373,110.000 303.000 C 110.000 302.670,110.270 302.400,110.600 302.400 C 110.930 302.400,111.200 302.130,111.200 301.800 C 111.200 301.470,111.470 301.200,111.800 301.200 C 112.130 301.200,112.400 300.951,112.400 300.647 C 112.400 300.342,112.760 299.999,113.200 299.884 C 113.729 299.746,114.000 299.338,114.000 298.680 C 114.000 298.133,114.270 297.582,114.600 297.455 C 114.930 297.329,115.200 296.757,115.200 296.184 C 115.200 295.611,115.470 294.873,115.800 294.543 C 116.130 294.213,116.400 293.345,116.400 292.614 C 116.400 291.802,116.633 291.196,117.000 291.055 C 117.411 290.898,117.600 290.255,117.600 289.013 C 117.600 287.668,117.755 287.200,118.200 287.200 C 118.644 287.200,118.800 286.733,118.800 285.400 C 118.800 284.067,118.956 283.600,119.400 283.600 C 119.844 283.600,120.000 283.133,120.000 281.800 C 120.000 280.467,120.156 280.000,120.600 280.000 C 121.051 280.000,121.200 279.516,121.200 278.047 C 121.200 276.430,121.338 276.057,122.000 275.884 C 122.631 275.719,122.800 275.338,122.800 274.080 C 122.800 273.032,123.006 272.407,123.400 272.255 C 123.730 272.129,124.000 271.569,124.000 271.013 C 124.000 270.014,123.955 270.000,120.829 270.000 C 117.024 270.000,116.400 270.427,116.400 273.029 C 116.400 274.337,116.243 274.800,115.800 274.800 C 115.347 274.800,115.200 275.289,115.200 276.800 C 115.200 278.311,115.053 278.800,114.600 278.800 C 114.156 278.800,114.000 279.267,114.000 280.600 C 114.000 281.866,113.836 282.400,113.447 282.400 C 112.840 282.400,112.414 283.587,112.405 285.300 C 112.402 286.009,112.187 286.400,111.800 286.400 C 111.381 286.400,111.200 285.978,111.200 285.000 C 111.200 284.022,111.019 283.600,110.600 283.600 C 110.156 283.600,110.000 283.133,110.000 281.800 C 110.000 280.467,109.844 280.000,109.400 280.000 C 108.948 280.000,108.800 279.516,108.800 278.043 C 108.800 276.672,108.620 276.017,108.200 275.855 C 107.808 275.705,107.600 275.082,107.600 274.062 C 107.600 273.160,107.346 272.287,107.000 272.000 C 106.670 271.726,106.400 271.164,106.400 270.751 C 106.400 270.079,106.064 270.000,103.200 270.000 L 100.000 270.000 100.000 271.751 M169.600 275.600 C 170.040 276.040,170.400 276.580,170.400 276.800 C 170.400 277.020,170.670 277.200,171.000 277.200 C 171.419 277.200,171.600 277.622,171.600 278.600 L 171.600 280.000 167.200 280.000 L 162.800 280.000 162.800 278.600 C 162.800 277.622,162.981 277.200,163.400 277.200 C 163.730 277.200,164.000 276.930,164.000 276.600 C 164.000 276.270,164.251 276.000,164.557 276.000 C 164.864 276.000,165.218 275.730,165.345 275.400 C 165.699 274.476,168.613 274.613,169.600 275.600 M196.800 275.400 C 196.800 275.730,197.049 276.000,197.353 276.000 C 198.177 276.000,198.389 277.311,198.389 282.400 C 198.389 287.489,198.177 288.800,197.353 288.800 C 197.049 288.800,196.800 289.070,196.800 289.400 C 196.800 289.867,196.267 290.000,194.400 290.000 C 192.533 290.000,192.000 289.867,192.000 289.400 C 192.000 289.067,191.644 288.800,191.200 288.800 C 190.558 288.800,190.400 288.533,190.400 287.449 C 190.400 286.706,190.130 285.874,189.800 285.600 C 189.373 285.246,189.200 284.308,189.200 282.351 C 189.200 280.172,189.325 279.600,189.800 279.600 C 190.244 279.600,190.400 279.133,190.400 277.800 C 190.400 276.267,190.519 276.000,191.200 276.000 C 191.644 276.000,192.000 275.733,192.000 275.400 C 192.000 274.933,192.533 274.800,194.400 274.800 C 196.267 274.800,196.800 274.933,196.800 275.400 M270.500 321.465 C 270.163 321.601,270.000 322.634,270.000 324.633 L 270.000 327.600 266.781 327.600 L 263.562 327.600 263.681 330.100 L 263.800 332.600 266.900 332.717 L 270.000 332.834 270.000 341.617 C 270.000 349.157,270.085 350.400,270.600 350.400 C 270.930 350.400,271.200 350.670,271.200 351.000 C 271.200 351.330,271.470 351.600,271.800 351.600 C 272.130 351.600,272.400 351.870,272.400 352.200 C 272.400 352.595,272.795 352.800,273.557 352.800 C 274.217 352.800,274.813 353.058,274.945 353.400 C 275.128 353.878,275.991 354.000,279.200 354.000 C 282.409 354.000,283.272 353.878,283.455 353.400 C 283.587 353.058,284.183 352.800,284.843 352.800 C 285.942 352.800,286.000 352.712,286.000 351.062 C 286.000 348.345,285.354 348.000,280.269 348.000 L 276.000 348.000 276.000 340.400 L 276.000 332.800 279.800 332.800 L 283.600 332.800 283.600 330.200 L 283.600 327.600 279.800 327.600 L 276.000 327.600 276.000 324.647 C 276.000 321.922,275.930 321.675,275.100 321.452 C 274.041 321.168,271.216 321.176,270.500 321.465 M53.857 327.000 C 53.527 327.330,52.879 327.600,52.416 327.600 C 51.953 327.600,51.478 327.852,51.360 328.161 C 51.241 328.469,50.797 328.812,50.372 328.923 C 49.948 329.034,49.600 329.412,49.600 329.763 C 49.600 330.113,49.330 330.400,49.000 330.400 C 48.670 330.400,48.400 330.651,48.400 330.957 C 48.400 331.264,48.130 331.618,47.800 331.745 C 47.470 331.871,47.200 332.431,47.200 332.987 C 47.200 333.621,46.975 334.000,46.600 334.000 C 46.092 334.000,46.000 334.956,46.000 340.200 C 46.000 345.444,46.092 346.400,46.600 346.400 C 47.001 346.400,47.200 346.801,47.200 347.613 C 47.200 348.321,47.449 348.921,47.800 349.055 C 48.130 349.182,48.400 349.536,48.400 349.843 C 48.400 350.149,48.670 350.400,49.000 350.400 C 49.330 350.400,49.600 350.670,49.600 351.000 C 49.600 351.330,49.851 351.600,50.157 351.600 C 50.464 351.600,50.818 351.870,50.945 352.200 C 51.102 352.611,51.745 352.800,52.987 352.800 C 54.332 352.800,54.800 352.955,54.800 353.400 C 54.800 353.886,55.446 354.000,58.213 354.000 C 60.877 354.000,61.676 353.868,61.855 353.400 C 61.997 353.030,62.605 352.800,63.443 352.800 C 64.383 352.800,64.800 352.615,64.800 352.200 C 64.800 351.800,65.200 351.600,66.000 351.600 C 67.156 351.600,67.200 351.533,67.200 349.800 C 67.200 348.467,67.044 348.000,66.600 348.000 C 66.267 348.000,66.000 347.644,66.000 347.200 C 66.000 346.521,65.733 346.400,64.233 346.400 C 62.086 346.400,61.200 346.704,61.200 347.443 C 61.200 347.862,60.556 348.000,58.600 348.000 C 56.773 348.000,56.000 347.850,56.000 347.495 C 56.000 347.217,55.596 346.812,55.102 346.595 C 54.608 346.378,53.968 345.705,53.680 345.100 C 53.392 344.495,52.986 344.000,52.778 344.000 C 52.570 344.000,52.400 342.698,52.400 341.106 C 52.400 338.011,53.912 334.000,55.078 334.000 C 55.379 334.000,55.729 333.730,55.855 333.400 C 56.027 332.953,56.739 332.800,58.643 332.800 C 60.649 332.800,61.200 332.929,61.200 333.400 C 61.200 333.867,61.733 334.000,63.600 334.000 C 65.467 334.000,66.000 333.867,66.000 333.400 C 66.000 333.070,66.280 332.800,66.622 332.800 C 67.906 332.800,67.212 329.024,65.900 328.873 C 65.270 328.801,64.800 328.502,64.800 328.173 C 64.800 327.800,64.372 327.600,63.571 327.600 C 62.896 327.600,62.073 327.330,61.743 327.000 C 61.305 326.562,60.238 326.400,57.800 326.400 C 55.362 326.400,54.295 326.562,53.857 327.000 M80.000 327.000 C 80.000 327.438,79.541 327.602,78.300 327.607 C 76.614 327.614,74.800 328.831,74.800 329.956 C 74.800 330.200,74.530 330.400,74.200 330.400 C 73.825 330.400,73.600 330.779,73.600 331.413 C 73.600 331.969,73.330 332.529,73.000 332.655 C 72.608 332.806,72.400 333.429,72.400 334.455 C 72.400 335.482,72.192 336.105,71.800 336.255 C 71.326 336.437,71.200 337.269,71.200 340.214 C 71.200 342.995,71.352 344.095,71.800 344.543 C 72.138 344.881,72.400 345.859,72.400 346.784 C 72.400 347.874,72.602 348.502,73.000 348.655 C 73.330 348.782,73.600 349.226,73.600 349.643 C 73.600 350.059,73.870 350.400,74.200 350.400 C 74.530 350.400,74.800 350.670,74.800 351.000 C 74.800 351.330,75.070 351.600,75.400 351.600 C 75.730 351.600,76.000 351.870,76.000 352.200 C 76.000 352.653,76.489 352.800,78.000 352.800 C 79.511 352.800,80.000 352.947,80.000 353.400 C 80.000 353.880,80.600 354.000,83.000 354.000 C 85.400 354.000,86.000 353.880,86.000 353.400 C 86.000 352.985,86.417 352.800,87.351 352.800 C 88.094 352.800,88.926 352.530,89.200 352.200 C 89.474 351.870,89.880 351.600,90.103 351.600 C 90.854 351.600,92.400 349.567,92.400 348.579 C 92.400 347.975,92.630 347.600,93.000 347.600 C 93.512 347.600,93.600 346.511,93.600 340.200 C 93.600 333.889,93.512 332.800,93.000 332.800 C 92.600 332.800,92.400 332.400,92.400 331.600 C 92.400 330.800,92.200 330.400,91.800 330.400 C 91.470 330.400,91.200 330.124,91.200 329.787 C 91.200 329.451,90.885 329.056,90.500 328.910 C 90.115 328.764,89.562 328.410,89.271 328.122 C 88.981 327.835,88.145 327.600,87.414 327.600 C 86.602 327.600,85.996 327.367,85.855 327.000 C 85.681 326.545,84.944 326.400,82.813 326.400 C 80.579 326.400,80.000 326.524,80.000 327.000 M105.055 327.000 C 104.874 327.472,104.055 327.600,101.213 327.600 L 97.600 327.600 97.600 340.200 L 97.600 352.800 100.600 352.800 L 103.600 352.800 103.600 343.400 C 103.600 335.225,103.680 334.000,104.213 334.000 C 104.549 334.000,104.929 333.730,105.055 333.400 C 105.187 333.058,105.783 332.800,106.443 332.800 L 107.600 332.800 107.600 342.817 L 107.600 352.834 110.700 352.717 L 113.800 352.600 113.908 343.492 C 114.007 335.027,114.071 334.329,114.808 333.592 C 116.544 331.856,116.800 333.216,116.800 344.176 C 116.800 353.028,116.708 352.800,120.280 352.800 L 122.800 352.800 122.800 341.203 C 122.800 330.040,122.770 329.588,122.000 329.107 C 121.560 328.832,121.200 328.381,121.200 328.104 C 121.200 327.827,120.930 327.600,120.600 327.600 C 120.270 327.600,120.000 327.330,120.000 327.000 C 120.000 326.170,115.685 326.147,115.044 326.973 C 114.280 327.959,110.000 327.982,110.000 327.000 C 110.000 326.535,109.471 326.400,107.643 326.400 C 105.916 326.400,105.224 326.561,105.055 327.000 M136.545 327.000 C 136.359 327.483,135.461 327.600,131.957 327.600 L 127.600 327.600 127.600 345.200 L 127.600 362.800 130.800 362.800 L 134.000 362.800 134.000 357.800 C 134.000 352.654,134.299 351.832,135.600 353.400 C 135.959 353.832,136.908 354.000,139.000 354.000 C 141.092 354.000,142.041 353.832,142.400 353.400 C 142.674 353.070,143.416 352.800,144.049 352.800 C 144.805 352.800,145.200 352.594,145.200 352.200 C 145.200 351.870,145.470 351.600,145.800 351.600 C 146.130 351.600,146.400 351.330,146.400 351.000 C 146.400 350.670,146.670 350.400,147.000 350.400 C 147.415 350.400,147.600 349.983,147.600 349.047 C 147.600 348.030,147.799 347.641,148.400 347.484 C 149.163 347.285,149.200 346.938,149.200 340.037 C 149.200 333.067,149.171 332.800,148.400 332.800 C 147.776 332.800,147.600 332.533,147.600 331.587 C 147.600 330.879,147.351 330.279,147.000 330.145 C 146.670 330.018,146.400 329.664,146.400 329.357 C 146.400 329.051,146.130 328.800,145.800 328.800 C 145.470 328.800,145.200 328.530,145.200 328.200 C 145.200 327.805,144.805 327.600,144.043 327.600 C 143.383 327.600,142.787 327.342,142.655 327.000 C 142.481 326.545,141.742 326.400,139.600 326.400 C 137.458 326.400,136.719 326.545,136.545 327.000 M162.945 327.000 C 162.788 327.407,162.150 327.600,160.957 327.600 C 159.662 327.600,159.200 327.758,159.200 328.200 C 159.200 328.530,158.930 328.800,158.600 328.800 C 158.267 328.800,158.000 329.156,158.000 329.600 C 158.000 330.044,157.733 330.400,157.400 330.400 C 157.068 330.400,156.800 330.755,156.800 331.197 C 156.800 331.635,156.440 332.218,156.000 332.493 C 155.438 332.844,155.200 333.426,155.200 334.447 C 155.200 335.252,154.932 336.124,154.600 336.400 C 154.150 336.773,154.000 337.775,154.000 340.400 C 154.000 343.025,154.150 344.027,154.600 344.400 C 154.930 344.674,155.202 345.371,155.205 345.949 C 155.214 347.616,155.646 348.800,156.247 348.800 C 156.551 348.800,156.800 349.160,156.800 349.600 C 156.800 350.044,157.067 350.400,157.400 350.400 C 157.730 350.400,158.000 350.670,158.000 351.000 C 158.000 351.330,158.270 351.600,158.600 351.600 C 158.930 351.600,159.200 351.870,159.200 352.200 C 159.200 352.644,159.667 352.800,161.000 352.800 C 162.333 352.800,162.800 352.956,162.800 353.400 C 162.800 353.880,163.401 354.000,165.813 354.000 C 168.121 354.000,168.879 353.860,169.055 353.400 C 169.185 353.063,169.780 352.800,170.414 352.800 C 171.035 352.800,171.813 352.530,172.143 352.200 C 172.473 351.870,173.026 351.600,173.371 351.600 C 173.717 351.600,174.000 351.420,174.000 351.200 C 174.000 350.980,174.360 350.440,174.800 350.000 C 175.240 349.560,175.600 348.859,175.600 348.443 C 175.600 348.026,175.870 347.582,176.200 347.455 C 176.702 347.263,176.800 346.076,176.800 340.200 C 176.800 334.324,176.702 333.137,176.200 332.945 C 175.870 332.818,175.600 332.396,175.600 332.007 C 175.600 330.725,172.612 327.983,170.927 327.719 C 170.087 327.587,169.256 327.236,169.080 326.939 C 168.604 326.136,163.256 326.189,162.945 327.000 M192.145 327.000 C 192.016 327.336,191.421 327.600,190.791 327.600 C 190.172 327.600,189.576 327.825,189.465 328.100 C 189.304 328.500,189.257 328.500,189.232 328.100 C 189.209 327.747,188.316 327.600,186.200 327.600 L 183.200 327.600 183.200 340.200 L 183.200 352.800 186.200 352.800 L 189.200 352.800 189.200 344.000 C 189.200 336.444,189.285 335.200,189.800 335.200 C 190.130 335.200,190.400 334.930,190.400 334.600 C 190.400 334.270,190.676 334.000,191.013 334.000 C 191.349 334.000,191.729 333.730,191.855 333.400 C 192.024 332.961,192.716 332.800,194.443 332.800 L 196.800 332.800 196.800 335.013 C 196.800 336.610,196.967 337.289,197.400 337.455 C 197.904 337.649,198.000 338.896,198.000 345.260 L 198.000 352.834 201.100 352.717 L 204.200 352.600 204.308 343.490 C 204.400 335.645,204.331 334.348,203.808 334.148 C 203.369 333.979,203.200 333.320,203.200 331.777 C 203.200 330.430,203.004 329.521,202.670 329.320 C 202.378 329.144,202.024 328.685,201.882 328.300 C 201.715 327.844,201.203 327.600,200.413 327.600 C 199.601 327.600,199.200 327.401,199.200 327.000 C 199.200 326.514,198.554 326.400,195.787 326.400 C 193.123 326.400,192.324 326.532,192.145 327.000 M217.345 327.000 C 217.203 327.370,216.595 327.600,215.757 327.600 C 215.011 327.600,214.400 327.789,214.400 328.021 C 214.400 328.252,213.860 328.630,213.200 328.860 C 212.540 329.090,212.000 329.531,212.000 329.839 C 212.000 330.148,211.730 330.400,211.400 330.400 C 211.000 330.400,210.800 330.800,210.800 331.600 C 210.800 332.400,210.600 332.800,210.200 332.800 C 209.728 332.800,209.600 333.356,209.600 335.400 C 209.600 337.444,209.472 338.000,209.000 338.000 C 208.040 338.000,208.065 341.894,209.029 342.644 C 209.404 342.936,209.600 343.864,209.600 345.344 C 209.600 347.083,209.738 347.600,210.200 347.600 C 210.601 347.600,210.800 348.001,210.800 348.813 C 210.800 349.521,211.049 350.121,211.400 350.255 C 211.730 350.382,212.000 350.736,212.000 351.043 C 212.000 351.372,212.414 351.600,213.013 351.600 C 213.569 351.600,214.129 351.870,214.255 352.200 C 214.397 352.570,215.005 352.800,215.843 352.800 C 216.783 352.800,217.200 352.985,217.200 353.400 C 217.200 353.889,217.867 354.000,220.800 354.000 C 223.733 354.000,224.400 353.889,224.400 353.400 C 224.400 352.955,224.868 352.800,226.213 352.800 C 227.455 352.800,228.098 352.611,228.255 352.200 C 228.382 351.870,228.736 351.600,229.043 351.600 C 229.857 351.600,229.798 347.856,228.971 347.029 C 227.993 346.050,224.784 346.173,224.516 347.200 C 224.331 347.908,223.970 348.000,221.380 348.000 C 218.805 348.000,218.423 347.904,218.200 347.200 C 218.060 346.760,217.688 346.400,217.373 346.400 C 217.058 346.400,216.800 346.130,216.800 345.800 C 216.800 345.470,216.530 345.200,216.200 345.200 C 215.800 345.200,215.600 344.800,215.600 344.000 L 215.600 342.800 223.200 342.800 L 230.800 342.800 230.800 337.800 C 230.800 333.622,230.701 332.800,230.200 332.800 C 229.825 332.800,229.600 332.421,229.600 331.787 C 229.600 331.231,229.330 330.671,229.000 330.545 C 228.670 330.418,228.400 330.058,228.400 329.745 C 228.400 329.431,228.085 329.059,227.700 328.917 C 227.315 328.775,226.891 328.497,226.758 328.299 C 226.624 328.101,225.769 327.839,224.858 327.717 C 223.830 327.579,223.200 327.287,223.200 326.947 C 223.200 326.121,217.663 326.171,217.345 327.000 M246.145 327.000 C 246.015 327.337,245.420 327.600,244.787 327.600 C 244.049 327.600,243.595 327.842,243.476 328.300 C 243.302 328.967,243.291 328.967,243.246 328.300 C 243.207 327.700,242.773 327.600,240.200 327.600 L 237.200 327.600 237.200 340.200 L 237.200 352.800 240.200 352.800 L 243.200 352.800 243.200 344.000 C 243.200 335.467,243.224 335.200,244.000 335.200 C 244.444 335.200,244.800 334.933,244.800 334.600 C 244.800 334.270,245.070 334.000,245.400 334.000 C 245.730 334.000,246.000 333.730,246.000 333.400 C 246.000 332.933,246.533 332.800,248.400 332.800 C 250.777 332.800,250.800 332.811,250.800 333.950 C 250.800 335.937,251.279 337.600,251.850 337.600 C 252.297 337.600,252.400 339.021,252.400 345.218 L 252.400 352.835 255.300 352.718 L 258.200 352.600 258.308 343.490 C 258.400 335.645,258.331 334.348,257.808 334.148 C 257.369 333.979,257.200 333.320,257.200 331.778 C 257.200 329.379,256.026 327.600,254.442 327.600 C 253.965 327.600,253.471 327.330,253.345 327.000 C 253.165 326.532,252.371 326.400,249.745 326.400 C 247.118 326.400,246.324 326.532,246.145 327.000 M298.945 327.000 C 298.818 327.331,298.224 327.600,297.618 327.600 C 297.016 327.600,296.107 327.960,295.600 328.400 C 295.093 328.840,294.545 329.200,294.382 329.200 C 294.220 329.200,293.968 329.672,293.824 330.248 C 293.679 330.825,293.299 331.558,292.980 331.877 C 292.165 332.693,292.181 336.400,293.000 336.400 C 293.400 336.400,293.600 336.800,293.600 337.600 C 293.600 338.355,293.805 338.800,294.153 338.800 C 294.458 338.800,294.801 339.160,294.916 339.600 C 295.031 340.040,295.393 340.400,295.720 340.400 C 296.047 340.400,296.418 340.670,296.545 341.000 C 296.695 341.392,297.318 341.600,298.345 341.600 C 299.371 341.600,299.994 341.808,300.145 342.200 C 300.302 342.611,300.945 342.800,302.187 342.800 C 303.532 342.800,304.000 342.955,304.000 343.400 C 304.000 343.800,304.400 344.000,305.200 344.000 C 306.543 344.000,307.032 346.072,305.800 346.545 C 305.470 346.671,305.200 347.051,305.200 347.387 C 305.200 348.411,299.453 348.253,298.400 347.200 C 297.960 346.760,297.240 346.400,296.800 346.400 C 296.360 346.400,296.000 346.220,296.000 346.000 C 296.000 345.780,295.550 345.600,295.000 345.600 C 294.450 345.600,294.000 345.759,294.000 345.953 C 294.000 346.148,293.640 346.401,293.200 346.516 C 292.760 346.631,292.400 347.012,292.400 347.363 C 292.400 347.713,292.130 348.000,291.800 348.000 C 291.425 348.000,291.200 348.379,291.200 349.013 C 291.200 349.569,291.470 350.129,291.800 350.255 C 292.130 350.382,292.400 350.736,292.400 351.043 C 292.400 351.349,292.676 351.600,293.013 351.600 C 293.349 351.600,293.729 351.870,293.855 352.200 C 294.012 352.607,294.650 352.800,295.843 352.800 C 297.138 352.800,297.600 352.958,297.600 353.400 C 297.600 353.897,298.350 354.000,301.951 354.000 C 305.331 354.000,306.413 353.866,306.800 353.400 C 307.074 353.070,307.906 352.800,308.649 352.800 C 309.583 352.800,310.000 352.615,310.000 352.200 C 310.000 351.870,310.270 351.600,310.600 351.600 C 310.930 351.600,311.200 351.330,311.200 351.000 C 311.200 350.670,311.470 350.400,311.800 350.400 C 312.258 350.400,312.400 349.898,312.400 348.280 C 312.400 347.114,312.596 345.964,312.835 345.725 C 313.148 345.412,313.148 345.215,312.835 345.022 C 312.596 344.874,312.400 343.773,312.400 342.576 C 312.400 340.908,312.260 340.400,311.800 340.400 C 311.470 340.400,311.200 340.130,311.200 339.800 C 311.200 339.405,310.805 339.200,310.047 339.200 C 309.230 339.200,308.832 338.967,308.684 338.400 C 308.519 337.769,308.138 337.600,306.880 337.600 C 305.832 337.600,305.207 337.394,305.055 337.000 C 304.898 336.589,304.255 336.400,303.013 336.400 C 301.668 336.400,301.200 336.245,301.200 335.800 C 301.200 335.470,300.930 335.200,300.600 335.200 C 300.200 335.200,300.000 334.800,300.000 334.000 L 300.000 332.800 303.800 332.800 C 306.911 332.800,307.600 332.909,307.600 333.400 C 307.600 333.844,308.067 334.000,309.400 334.000 C 310.733 334.000,311.200 333.844,311.200 333.400 C 311.200 333.070,311.470 332.800,311.800 332.800 C 312.253 332.800,312.400 332.311,312.400 330.800 C 312.400 329.644,312.219 328.800,311.971 328.800 C 311.736 328.800,311.273 328.530,310.943 328.200 C 310.595 327.852,309.618 327.600,308.620 327.600 C 307.577 327.600,306.702 327.363,306.400 327.000 C 306.030 326.554,305.040 326.400,302.538 326.400 C 299.918 326.400,299.124 326.532,298.945 327.000 M85.400 333.866 C 85.840 334.432,86.515 335.234,86.900 335.648 C 87.465 336.255,87.600 337.134,87.600 340.200 C 87.600 344.191,87.702 343.905,85.381 346.434 C 85.062 346.782,84.800 347.277,84.800 347.534 C 84.800 347.828,84.044 348.000,82.746 348.000 C 79.992 348.000,78.978 346.952,78.720 343.842 C 78.618 342.605,78.252 341.298,77.900 340.906 C 77.317 340.258,77.328 340.122,78.032 339.256 C 78.479 338.707,78.800 337.696,78.800 336.842 C 78.800 333.339,83.384 331.273,85.400 333.866 M140.800 333.600 C 141.240 334.040,141.600 334.580,141.600 334.800 C 141.600 335.020,141.870 335.200,142.200 335.200 C 142.700 335.200,142.800 336.001,142.800 340.013 C 142.800 343.921,142.687 344.868,142.200 345.055 C 141.870 345.182,141.600 345.517,141.600 345.800 C 141.600 346.083,141.330 346.418,141.000 346.545 C 140.670 346.671,140.400 347.051,140.400 347.387 C 140.400 347.856,139.929 348.000,138.400 348.000 C 136.889 348.000,136.400 347.853,136.400 347.400 C 136.400 347.070,136.189 346.800,135.931 346.800 C 135.674 346.800,135.134 346.502,134.731 346.138 C 133.728 345.230,133.607 335.200,134.600 335.200 C 134.930 335.200,135.200 334.930,135.200 334.600 C 135.200 334.270,135.470 334.000,135.800 334.000 C 136.130 334.000,136.400 333.730,136.400 333.400 C 136.400 332.439,139.793 332.593,140.800 333.600 M168.000 333.400 C 168.000 333.730,168.270 334.000,168.600 334.000 C 168.930 334.000,169.200 334.248,169.200 334.551 C 169.200 334.854,169.470 335.326,169.800 335.600 C 170.262 335.983,170.400 337.042,170.400 340.200 C 170.400 343.358,170.262 344.417,169.800 344.800 C 169.470 345.074,169.200 345.527,169.200 345.806 C 169.200 346.086,168.930 346.418,168.600 346.545 C 168.270 346.671,168.000 347.051,168.000 347.387 C 168.000 347.860,167.519 348.000,165.899 348.000 C 162.991 348.000,161.600 346.597,161.600 343.664 C 161.600 342.378,161.376 341.433,160.975 341.032 C 160.408 340.465,160.408 340.324,160.975 339.514 C 161.319 339.024,161.600 337.916,161.600 337.054 C 161.600 334.676,163.535 332.857,166.100 332.824 C 167.533 332.806,168.000 332.947,168.000 333.400 M222.987 334.213 C 223.840 335.067,224.400 336.017,224.400 336.613 L 224.400 337.600 220.000 337.600 L 215.600 337.600 215.600 336.400 C 215.600 335.600,215.800 335.200,216.200 335.200 C 216.530 335.200,216.800 334.930,216.800 334.600 C 216.800 334.270,217.051 334.000,217.357 334.000 C 217.664 334.000,218.018 333.730,218.145 333.400 C 218.615 332.175,221.419 332.646,222.987 334.213 " stroke="none" fill="#040404" fill-rule="evenodd"></path><path id="path3" d="M237.200 66.400 C 237.200 67.119,237.009 67.560,236.723 67.500 C 236.425 67.438,236.191 68.073,236.102 69.191 C 236.023 70.176,235.698 71.270,235.379 71.623 C 234.520 72.573,234.538 81.200,235.400 81.200 C 235.730 81.200,236.000 81.470,236.000 81.800 C 236.000 82.130,236.270 82.400,236.600 82.400 C 236.930 82.400,237.200 82.117,237.200 81.771 C 237.200 81.426,236.930 80.873,236.600 80.543 C 235.801 79.744,235.784 74.623,236.576 73.106 C 236.890 72.504,237.218 71.164,237.305 70.129 C 237.391 69.093,237.673 68.176,237.931 68.090 C 238.652 67.849,238.531 65.200,237.800 65.200 C 237.400 65.200,237.200 65.600,237.200 66.400 M261.028 85.555 C 260.724 86.046,258.449 87.200,257.784 87.200 C 257.513 87.200,256.791 87.460,256.180 87.777 C 255.568 88.094,254.579 88.256,253.982 88.136 C 252.682 87.876,252.509 88.113,251.988 90.869 C 251.766 92.041,251.408 93.060,251.192 93.133 C 250.976 93.207,250.799 93.927,250.798 94.733 C 250.796 95.540,250.526 96.716,250.198 97.346 C 249.869 97.976,249.600 98.897,249.600 99.394 C 249.600 99.890,249.235 101.437,248.790 102.832 C 248.344 104.228,248.063 105.588,248.166 105.855 C 248.268 106.123,248.093 106.557,247.776 106.820 C 247.459 107.083,247.199 107.591,247.198 107.949 C 247.196 108.307,246.913 109.140,246.568 109.800 C 246.223 110.460,245.839 111.855,245.715 112.900 C 245.590 113.945,245.334 114.800,245.144 114.800 C 244.470 114.800,244.814 115.510,245.585 115.712 C 246.688 116.001,247.129 115.290,247.274 112.990 C 247.358 111.662,247.566 111.033,247.900 111.100 C 248.247 111.169,248.400 110.587,248.400 109.200 C 248.400 107.689,248.547 107.200,249.000 107.200 C 249.467 107.200,249.600 106.667,249.600 104.800 C 249.600 102.978,249.739 102.400,250.176 102.400 C 250.553 102.400,250.795 101.881,250.876 100.900 C 250.948 100.032,251.195 99.437,251.464 99.488 C 251.983 99.586,252.629 95.894,252.211 95.218 C 252.069 94.988,252.214 94.800,252.534 94.800 C 253.341 94.800,253.580 93.968,253.425 91.696 L 253.293 89.748 256.607 89.922 C 259.666 90.083,259.955 90.031,260.374 89.248 C 260.624 88.782,261.182 88.400,261.614 88.400 C 262.213 88.400,262.400 88.126,262.400 87.249 C 262.400 86.030,261.455 84.863,261.028 85.555 M242.575 86.706 C 241.825 87.226,242.082 88.704,242.886 88.493 C 243.319 88.380,243.600 87.932,243.600 87.353 C 243.600 86.373,243.316 86.193,242.575 86.706 M242.054 90.700 C 242.024 91.209,241.739 91.600,241.400 91.600 C 241.035 91.600,240.812 91.953,240.832 92.500 C 240.849 92.995,240.954 93.174,241.066 92.898 C 241.177 92.621,241.434 92.498,241.637 92.623 C 242.138 92.932,242.503 91.867,242.286 90.729 L 242.109 89.800 242.054 90.700 M239.790 97.230 C 239.412 98.422,239.727 98.515,240.267 97.371 C 240.519 96.837,240.574 96.400,240.389 96.400 C 240.205 96.400,239.935 96.774,239.790 97.230 M197.700 101.700 C 197.791 101.975,198.166 102.258,198.532 102.329 C 198.996 102.419,199.124 102.268,198.956 101.829 C 198.672 101.090,197.455 100.965,197.700 101.700 M200.400 103.200 C 200.400 103.733,200.667 104.000,201.200 104.000 C 201.640 104.000,202.000 104.251,202.000 104.557 C 202.000 104.864,202.270 105.218,202.600 105.345 C 203.445 105.669,203.353 105.347,202.153 103.773 C 200.966 102.217,200.400 102.032,200.400 103.200 M238.667 103.067 C 238.206 103.527,238.375 104.000,239.000 104.000 C 239.330 104.000,239.600 103.730,239.600 103.400 C 239.600 102.775,239.127 102.606,238.667 103.067 M238.400 107.533 C 238.400 107.790,238.141 108.000,237.825 108.000 C 237.507 108.000,237.275 108.339,237.307 108.756 C 237.338 109.172,237.579 109.429,237.842 109.328 C 238.343 109.136,238.903 107.569,238.584 107.251 C 238.483 107.150,238.400 107.277,238.400 107.533 M218.857 109.163 C 218.455 109.413,218.436 109.575,218.784 109.790 C 219.333 110.129,219.745 109.829,219.542 109.238 C 219.458 108.996,219.176 108.965,218.857 109.163 M216.400 110.600 C 215.995 111.088,216.015 111.200,216.508 111.200 C 216.842 111.200,217.218 110.930,217.345 110.600 C 217.471 110.270,217.423 110.000,217.236 110.000 C 217.050 110.000,216.674 110.270,216.400 110.600 M178.706 111.752 C 178.325 112.042,178.130 112.396,178.273 112.540 C 178.738 113.005,179.102 112.817,179.316 112.000 C 179.431 111.560,179.497 111.206,179.463 111.213 C 179.428 111.220,179.088 111.463,178.706 111.752 M176.800 113.413 C 176.800 113.736,177.070 114.000,177.400 114.000 C 177.730 114.000,178.000 113.839,178.000 113.643 C 178.000 113.446,177.730 113.182,177.400 113.055 C 177.035 112.915,176.800 113.055,176.800 113.413 M228.400 114.951 C 228.400 117.118,228.853 117.882,229.357 116.567 C 229.794 115.428,229.612 113.708,229.000 113.200 C 228.479 112.767,228.400 112.997,228.400 114.951 M236.428 113.366 C 235.796 114.128,235.985 114.504,236.760 114.025 C 237.056 113.842,237.224 113.472,237.134 113.202 C 237.018 112.854,236.814 112.901,236.428 113.366 M208.654 115.802 C 208.515 116.165,208.656 116.400,209.013 116.400 C 209.660 116.400,209.807 115.775,209.242 115.426 C 209.045 115.304,208.781 115.474,208.654 115.802 M244.400 118.000 C 244.400 118.490,244.671 118.805,245.100 118.813 C 245.767 118.825,245.767 118.851,245.100 119.357 C 244.715 119.649,244.400 120.093,244.400 120.344 C 244.400 120.595,244.130 120.800,243.800 120.800 C 243.381 120.800,243.200 121.222,243.200 122.200 C 243.200 123.130,243.387 123.600,243.757 123.600 C 244.424 123.600,244.800 122.740,244.800 121.216 C 244.800 120.601,245.070 119.874,245.400 119.600 C 246.315 118.841,246.178 117.200,245.200 117.200 C 244.667 117.200,244.400 117.467,244.400 118.000 M171.600 118.104 C 171.600 118.455,171.285 118.824,170.900 118.924 C 170.244 119.096,170.245 119.110,170.913 119.154 C 171.636 119.201,172.306 118.173,171.849 117.716 C 171.712 117.579,171.600 117.753,171.600 118.104 M234.861 120.045 C 234.849 121.550,234.969 121.910,235.423 121.736 C 236.216 121.432,236.229 118.133,235.438 118.133 C 235.036 118.133,234.872 118.677,234.861 120.045 M200.800 122.200 C 200.800 122.530,201.070 122.800,201.400 122.800 C 201.730 122.800,202.000 122.530,202.000 122.200 C 202.000 121.870,201.730 121.600,201.400 121.600 C 201.070 121.600,200.800 121.870,200.800 122.200 M232.226 123.837 C 232.073 124.450,231.644 125.197,231.273 125.497 C 230.681 125.979,230.708 125.992,231.500 125.608 C 231.995 125.368,232.400 124.908,232.400 124.586 C 232.400 124.202,232.813 124.000,233.600 124.000 C 234.400 124.000,234.800 123.800,234.800 123.400 C 234.800 123.067,234.444 122.800,234.000 122.800 C 233.560 122.800,233.197 123.025,233.194 123.300 C 233.189 123.671,233.100 123.661,232.847 123.262 C 232.597 122.868,232.431 123.023,232.226 123.837 M226.100 123.865 C 225.404 124.146,225.473 124.800,226.200 124.800 C 226.530 124.800,226.800 124.530,226.800 124.200 C 226.800 123.870,226.755 123.614,226.700 123.632 C 226.645 123.649,226.375 123.754,226.100 123.865 M243.262 127.107 C 243.317 128.089,243.536 128.755,243.779 128.674 C 244.479 128.441,244.495 127.270,243.812 126.307 C 243.181 125.420,243.169 125.437,243.262 127.107 M230.050 127.134 C 229.468 128.191,229.575 128.510,230.351 128.030 C 230.641 127.851,230.808 127.366,230.722 126.952 C 230.580 126.270,230.517 126.287,230.050 127.134 M229.600 129.529 C 229.600 129.961,229.330 130.418,229.000 130.545 C 228.670 130.671,228.400 130.967,228.400 131.202 C 228.400 131.620,228.897 131.430,230.365 130.450 C 230.843 130.130,230.828 129.971,230.265 129.408 C 229.645 128.788,229.600 128.796,229.600 129.529 M223.449 137.146 C 222.809 137.854,222.821 137.890,223.682 137.846 C 224.204 137.820,224.646 137.503,224.724 137.100 C 224.900 136.186,224.298 136.208,223.449 137.146 M235.745 141.800 C 235.618 142.130,235.344 142.400,235.136 142.400 C 234.928 142.400,234.095 142.850,233.286 143.400 C 231.819 144.397,231.818 144.400,232.907 144.400 C 233.508 144.400,234.000 144.231,234.000 144.024 C 234.000 143.817,234.675 143.592,235.500 143.524 C 236.802 143.416,237.017 143.255,237.127 142.300 C 237.266 141.091,236.169 140.694,235.745 141.800 M236.500 145.023 C 236.225 145.322,236.000 145.794,236.000 146.072 C 236.000 146.350,236.288 146.166,236.641 145.663 C 237.362 144.633,237.265 144.193,236.500 145.023 M136.800 147.400 C 136.800 147.730,137.040 148.000,137.333 148.000 C 137.627 148.000,137.867 147.730,137.867 147.400 C 137.867 147.070,137.627 146.800,137.333 146.800 C 137.040 146.800,136.800 147.070,136.800 147.400 M234.400 148.387 C 234.400 148.923,234.592 149.101,235.000 148.945 C 235.330 148.818,235.600 148.464,235.600 148.157 C 235.600 147.851,235.330 147.600,235.000 147.600 C 234.670 147.600,234.400 147.954,234.400 148.387 " stroke="none" fill="#406c78" fill-rule="evenodd"></path><path id="path4" d="M195.600 123.157 C 195.600 123.887,197.413 124.720,197.914 124.219 C 198.035 124.099,197.833 124.000,197.467 124.000 C 197.067 124.000,196.800 123.680,196.800 123.200 C 196.800 122.756,196.533 122.400,196.200 122.400 C 195.870 122.400,195.600 122.740,195.600 123.157 M166.800 123.400 C 166.800 123.730,167.070 124.000,167.400 124.000 C 167.730 124.000,168.000 123.730,168.000 123.400 C 168.000 123.070,167.730 122.800,167.400 122.800 C 167.070 122.800,166.800 123.070,166.800 123.400 M162.984 125.627 C 162.560 126.313,162.939 126.380,163.777 125.767 C 164.426 125.293,164.446 125.200,163.900 125.200 C 163.541 125.200,163.129 125.392,162.984 125.627 M220.600 131.200 C 220.464 131.420,220.723 131.600,221.176 131.600 C 221.629 131.600,222.000 131.420,222.000 131.200 C 222.000 130.980,221.741 130.800,221.424 130.800 C 221.107 130.800,220.736 130.980,220.600 131.200 " stroke="none" fill="#407004" fill-rule="evenodd"></path></g></svg>