<svg version="1.1" id="Layer_1" xmlns="http://www.w3.org/2000/svg" xmlns:xlink="http://www.w3.org/1999/xlink" x="0px" y="0px"
	 width="100%" viewBox="0 0 96 96" enable-background="new 0 0 96 96" xml:space="preserve">
<path fill="#000000" opacity="1.000000" stroke="none" 
	d="
M9.000000,97.000000 
	C6.341692,97.000000 3.683384,97.000000 1.018807,97.000000 
	C1.012538,65.108665 1.012538,33.217323 1.012538,1.000000 
	C12.685540,1.000000 24.374111,1.000000 36.510731,1.314946 
	C36.650528,1.904241 36.342274,2.178590 35.822014,2.394338 
	C35.276077,2.475527 35.164043,2.717961 35.071953,3.265260 
	C34.598473,3.734833 34.326950,4.002185 33.827278,4.265768 
	C33.275440,4.420200 33.155262,4.674497 33.155624,5.035498 
	C33.072636,5.046106 33.032475,5.208541 32.693558,5.363708 
	C32.235058,7.032833 32.115482,8.546789 31.747561,10.084099 
	C31.499218,10.107452 31.038559,10.298949 30.766085,10.262815 
	C30.112099,10.532173 29.730585,10.837663 29.247265,11.170499 
	C29.145454,11.197845 29.082682,11.399120 28.872616,11.394988 
	C28.373213,11.521050 28.227566,11.744833 27.910290,12.226163 
	C25.460938,15.305739 22.806786,17.975807 21.292229,21.183884 
	C17.068245,30.130974 20.268398,39.024914 22.169081,48.250259 
	C19.319059,53.226700 16.554800,57.824493 13.445922,62.995491 
	C16.348581,62.551182 18.975777,62.149040 22.659689,61.585148 
	C20.163078,64.906082 18.180544,67.543198 15.931316,70.535072 
	C17.324364,70.752937 18.255371,70.898537 19.442003,71.339798 
	C18.488626,73.248810 17.279629,74.862175 16.069439,76.477127 
	C18.367661,77.034447 20.281334,77.498520 22.004826,78.304703 
	C19.242395,79.444069 16.670151,80.241302 14.064643,81.038177 
	C14.031379,81.037811 14.047174,81.102287 13.709146,81.112907 
	C12.701392,81.475098 12.031667,81.826675 11.304136,82.469444 
	C11.305237,83.151344 11.364144,83.542053 11.333430,84.171005 
	C11.514501,84.566177 11.785193,84.723106 12.139375,85.097244 
	C12.222864,85.314453 12.415152,85.738297 12.299401,86.058945 
	C12.838064,87.249718 13.492477,88.119843 13.871192,89.189255 
	C12.063663,91.925697 10.531831,94.462845 9.000000,97.000000 
z"/>
<path fill="#010101" opacity="1.000000" stroke="none" 
	d="
M56.000000,1.000000 
	C69.620377,1.000000 83.240746,1.000000 96.930557,1.000000 
	C96.930557,32.999893 96.930557,64.999924 96.930557,97.000000 
	C94.640327,97.000000 92.314896,97.000000 89.498383,96.596764 
	C88.026711,92.831039 87.046112,89.468559 86.279785,85.879456 
	C87.474258,84.608238 88.454453,83.563622 89.936501,81.984177 
	C87.223206,80.912689 85.077225,80.065224 82.921051,79.129898 
	C82.910873,79.042030 82.735184,79.062767 82.709030,78.895782 
	C82.682877,78.728806 82.395966,78.551598 82.395966,78.551598 
	C82.395966,78.551598 82.124397,78.751488 81.766479,78.571671 
	C81.159935,78.294434 80.911308,78.197021 80.688705,77.756065 
	C82.768257,76.469963 83.665176,75.441399 80.776665,73.868912 
	C79.089195,72.371155 77.582756,71.149338 76.003784,69.643494 
	C75.538261,69.041351 75.145294,68.723244 74.736374,68.333549 
	C74.720421,68.261971 74.590652,68.193611 74.704536,67.860504 
	C75.366180,62.864609 79.089409,68.262276 80.005493,66.378616 
	C78.550720,61.277027 77.227959,56.638382 75.949799,51.958275 
	C75.994392,51.916813 75.934639,51.810692 76.221664,51.742821 
	C76.635895,51.109894 76.763107,50.544834 77.141708,49.720089 
	C80.807175,44.472347 79.972054,38.926033 79.559120,33.415565 
	C79.493347,32.537838 79.865921,31.627264 80.338959,30.877159 
	C82.316467,32.495102 83.990860,33.967762 86.416481,36.101143 
	C81.889900,19.570293 72.123917,9.170369 57.435139,3.122812 
	C56.776989,2.851843 56.470360,1.727081 56.000000,1.000000 
z"/>
<path fill="#CD6BBD" opacity="1.000000" stroke="none" 
	d="
M55.531731,1.000000 
	C56.470360,1.727081 56.776989,2.851843 57.435139,3.122812 
	C72.123917,9.170369 81.889900,19.570293 86.416481,36.101143 
	C83.990860,33.967762 82.316467,32.495102 80.279510,30.548389 
	C77.635513,28.356764 75.354065,26.639187 72.995110,24.650860 
	C72.619881,23.906460 72.322159,23.432812 71.983307,22.905472 
	C71.942177,22.851784 71.766472,22.858574 71.766472,22.858574 
	C71.766472,22.858574 71.952911,23.029770 72.017998,23.306164 
	C72.374298,24.061621 72.665512,24.540688 73.040527,25.375101 
	C77.473083,33.428463 77.943275,41.584427 75.965195,50.323303 
	C75.936508,51.017181 75.935570,51.413937 75.934639,51.810692 
	C75.934639,51.810692 75.994392,51.916813 75.674759,52.013000 
	C74.898727,52.435455 74.442322,52.761726 73.989845,52.623337 
	C73.794930,47.487396 74.785194,42.584255 70.991882,38.541481 
	C70.991882,41.119331 70.991882,43.697182 70.991882,46.275036 
	C69.613335,44.079639 69.117714,41.678074 68.134483,39.496250 
	C67.175774,37.368835 65.718552,35.466072 64.480186,33.464680 
	C64.026825,33.663059 63.573463,33.861435 63.120102,34.059814 
	C63.793850,36.449703 64.467598,38.839588 64.945251,41.498970 
	C60.697075,45.043259 61.336746,40.369785 60.004845,38.981995 
	C59.974907,38.978363 59.976505,39.038654 60.176712,38.951248 
	C60.458778,38.743355 60.637253,38.562553 60.606083,38.512630 
	C60.456547,38.273102 60.250324,38.068962 60.012997,37.619728 
	C59.930153,37.067852 59.952545,36.752331 59.981110,36.096359 
	C59.590424,35.174564 59.247566,34.597046 58.958626,34.124306 
	C59.012550,34.229088 58.823605,34.369976 58.835350,33.990562 
	C56.396454,25.672262 51.051601,20.474869 43.552860,17.196150 
	C38.220787,14.864780 33.815155,11.593022 33.032475,5.208541 
	C33.032475,5.208541 33.072636,5.046106 33.357204,5.000076 
	C33.896828,4.796754 34.034714,4.568584 34.055424,4.269538 
	C34.326950,4.002185 34.598473,3.734833 35.251869,3.242005 
	C35.886005,2.913033 36.019428,2.725169 36.034019,2.452939 
	C36.342274,2.178590 36.650528,1.904241 36.979389,1.314946 
	C43.021152,1.000000 49.042305,1.000000 55.531731,1.000000 
z"/>
<path fill="#985596" opacity="1.000000" stroke="none" 
	d="
M14.097906,81.038536 
	C16.670151,80.241302 19.242395,79.444069 22.256866,78.258240 
	C22.867048,77.838287 23.035006,77.806915 23.590374,77.821564 
	C28.625397,76.617058 32.544384,77.994286 36.040581,81.108498 
	C37.612999,82.509109 39.318283,83.760574 41.116966,85.350998 
	C42.481041,86.416969 43.691422,87.211647 45.072319,88.287994 
	C46.832542,89.749092 48.422249,90.928535 50.296753,91.944771 
	C51.766613,90.518089 52.951672,89.254616 54.417130,87.835793 
	C56.512085,85.828522 58.326649,83.976601 60.477772,82.025360 
	C65.254784,80.187798 69.695236,78.449554 74.505447,76.718918 
	C76.589973,76.479721 78.304733,76.232925 79.935776,76.259155 
	C79.580170,77.032524 79.308281,77.532852 78.644508,78.018913 
	C67.177124,80.266685 60.433163,87.831055 55.000000,97.000000 
	C51.638714,97.000000 48.277424,97.000000 44.339493,96.681755 
	C36.266682,86.624649 26.557184,81.170181 14.097906,81.038536 
z"/>
<path fill="#CC6ABB" opacity="1.000000" stroke="none" 
	d="
M55.468269,97.000000 
	C60.433163,87.831055 67.177124,80.266685 78.914215,78.053947 
	C79.938103,78.102036 80.300385,78.100822 80.662674,78.099602 
	C80.911308,78.197021 81.159935,78.294434 81.836525,78.673668 
	C82.264481,78.955490 82.735184,79.062767 82.735184,79.062767 
	C82.735184,79.062767 82.910873,79.042030 83.007118,79.445389 
	C82.718178,81.882301 82.332993,83.915855 81.646255,86.018524 
	C78.292854,87.288727 79.856499,88.732140 81.003922,90.448868 
	C80.333786,91.373703 79.790604,92.010040 79.026627,92.380951 
	C74.208916,90.796936 75.224037,95.000023 74.000000,97.000000 
	C67.978851,97.000000 61.957695,97.000000 55.468269,97.000000 
z"/>
<path fill="#D169C0" opacity="1.000000" stroke="none" 
	d="
M14.064642,81.038177 
	C26.557184,81.170181 36.266682,86.624649 43.881424,96.681755 
	C36.979053,97.000000 29.958105,97.000000 22.474060,96.600563 
	C19.903925,91.739006 17.796885,87.276886 15.654601,82.740128 
	C14.013462,84.259033 13.214307,84.998665 12.415152,85.738297 
	C12.415152,85.738297 12.222864,85.314453 12.104191,84.898590 
	C11.883224,84.212280 11.695735,84.028961 11.423052,83.932762 
	C11.364144,83.542053 11.305237,83.151344 11.608012,82.462967 
	C12.662189,81.810966 13.354682,81.456627 14.047175,81.102287 
	C14.047174,81.102287 14.031379,81.037811 14.064642,81.038177 
z"/>
<path fill="#323032" opacity="1.000000" stroke="none" 
	d="
M79.247429,92.646370 
	C79.790604,92.010040 80.333786,91.373703 81.223824,90.345177 
	C81.839661,89.737862 81.991684,89.458984 82.278946,88.960602 
	C83.042213,88.209633 83.553299,87.614395 84.330307,86.940468 
	C85.085999,86.609879 85.575760,86.357979 86.065514,86.106071 
	C87.046112,89.468559 88.026711,92.831039 89.003654,96.596764 
	C85.307091,97.000000 81.614182,97.000000 77.575394,96.632126 
	C77.214836,96.007782 77.200172,95.751297 77.451584,95.454422 
	C78.227585,94.491478 78.737511,93.568924 79.247429,92.646370 
z"/>
<path fill="#373436" opacity="1.000000" stroke="none" 
	d="
M9.458069,97.000000 
	C10.531831,94.462845 12.063663,91.925697 14.154379,89.353302 
	C16.475512,91.878708 18.237757,94.439354 20.000000,97.000000 
	C16.638712,97.000000 13.277425,97.000000 9.458069,97.000000 
z"/>
<path fill="#9F6AA0" opacity="1.000000" stroke="none" 
	d="
M20.333334,97.000000 
	C18.237757,94.439354 16.475512,91.878708 14.430079,89.154007 
	C13.492477,88.119843 12.838064,87.249718 12.299402,86.058945 
	C13.214307,84.998665 14.013462,84.259033 15.654601,82.740128 
	C17.796885,87.276886 19.903925,91.739006 22.005482,96.600563 
	C21.555555,97.000000 21.111111,97.000000 20.333334,97.000000 
z"/>
<path fill="#AF66A7" opacity="1.000000" stroke="none" 
	d="
M79.026627,92.380951 
	C78.737511,93.568924 78.227585,94.491478 77.274033,95.719711 
	C76.553604,96.350266 76.276802,96.675133 76.000000,97.000000 
	C75.555557,97.000000 75.111107,97.000000 74.333328,97.000000 
	C75.224037,95.000023 74.208916,90.796936 79.026627,92.380951 
z"/>
<path fill="#CC6ABB" opacity="1.000000" stroke="none" 
	d="
M76.250000,97.000000 
	C76.276802,96.675133 76.553604,96.350266 77.007950,95.760109 
	C77.200172,95.751297 77.214836,96.007782 77.114754,96.632126 
	C77.000000,97.000000 76.500000,97.000000 76.250000,97.000000 
z"/>
<path fill="#C968BA" opacity="1.000000" stroke="none" 
	d="
M22.254843,47.871616 
	C20.268398,39.024914 17.068245,30.130974 21.292229,21.183884 
	C22.806786,17.975807 25.460938,15.305739 28.106861,12.198205 
	C28.888102,11.891530 29.042746,11.689141 29.082682,11.399120 
	C29.082682,11.399120 29.145454,11.197845 29.499149,11.177549 
	C30.248083,10.871153 30.643322,10.585051 31.038559,10.298949 
	C31.038559,10.298949 31.499218,10.107452 31.788998,10.445950 
	C33.904732,13.968332 35.730690,17.152218 37.648376,20.701244 
	C37.076370,30.518503 34.414974,34.776230 29.001175,32.235378 
	C27.990051,37.104301 27.049717,41.632359 26.109383,46.160416 
	C26.717232,46.381878 27.325083,46.603340 27.932934,46.824806 
	C28.859520,45.832672 29.786106,44.840538 30.846249,44.202312 
	C31.520075,45.096199 32.060345,45.636173 32.247913,46.319931 
	C28.299267,47.488914 27.106264,49.594860 28.595985,53.204762 
	C29.059662,54.328346 28.895184,55.711155 28.741653,57.101997 
	C26.394970,54.109673 24.324907,50.990646 22.254843,47.871616 
z"/>
<path fill="#6E456F" opacity="1.000000" stroke="none" 
	d="
M22.169081,48.250259 
	C24.324907,50.990646 26.394970,54.109673 28.967424,57.323509 
	C30.617949,58.169518 31.766085,58.920727 32.975079,59.981247 
	C33.345448,60.786419 33.654953,61.282280 34.009731,62.059227 
	C33.826454,62.855114 33.597908,63.369923 33.212250,64.126617 
	C30.704205,65.956985 28.353273,67.545456 25.678455,69.219894 
	C23.896667,69.865303 22.438765,70.424736 20.873007,70.702682 
	C20.176424,70.655899 19.587694,70.890602 19.026896,71.061317 
	C19.054825,70.997330 19.186380,71.044144 19.186380,71.044144 
	C18.255371,70.898537 17.324364,70.752937 15.931316,70.535072 
	C18.180544,67.543198 20.163078,64.906082 22.659689,61.585148 
	C18.975777,62.149040 16.348581,62.551182 13.445922,62.995491 
	C16.554800,57.824493 19.319059,53.226700 22.169081,48.250259 
z"/>
<path fill="#985694" opacity="1.000000" stroke="none" 
	d="
M37.556648,20.336102 
	C35.730690,17.152218 33.904732,13.968332 32.037338,10.422597 
	C32.115482,8.546789 32.235058,7.032833 32.693558,5.363708 
	C33.815155,11.593022 38.220787,14.864780 43.552860,17.196150 
	C51.051601,20.474869 56.396454,25.672262 58.509758,33.997990 
	C56.517040,34.040112 54.861660,33.695393 53.036209,33.028728 
	C49.961376,30.513815 47.056618,28.320847 44.101810,25.765951 
	C41.886726,23.714718 39.721687,22.025410 37.556648,20.336102 
z"/>
<path fill="#A2639D" opacity="1.000000" stroke="none" 
	d="
M20.980862,70.984169 
	C22.438765,70.424736 23.896667,69.865303 25.677467,69.503571 
	C25.990543,70.080635 25.980721,70.459991 25.689005,71.012680 
	C24.134966,72.187248 22.862820,73.188492 21.713530,74.093040 
	C22.276875,75.485870 22.739920,76.630707 23.202963,77.775551 
	C23.035006,77.806915 22.867048,77.838287 22.447052,77.916122 
	C20.281334,77.498520 18.367661,77.034447 16.069439,76.477127 
	C17.279629,74.862175 18.488626,73.248810 19.442003,71.339798 
	C19.186380,71.044144 19.054825,70.997330 19.288651,71.383530 
	C20.008606,71.507881 20.494734,71.246025 20.980862,70.984169 
z"/>
<path fill="#9F6AA0" opacity="1.000000" stroke="none" 
	d="
M13.709146,81.112907 
	C13.354682,81.456627 12.662189,81.810966 11.665819,82.171783 
	C12.031667,81.826675 12.701392,81.475098 13.709146,81.112907 
z"/>
<path fill="#985694" opacity="1.000000" stroke="none" 
	d="
M30.766085,10.262815 
	C30.643322,10.585051 30.248083,10.871153 29.600960,11.150204 
	C29.730585,10.837663 30.112099,10.532173 30.766085,10.262815 
z"/>
<path fill="#985694" opacity="1.000000" stroke="none" 
	d="
M28.872616,11.394988 
	C29.042746,11.689141 28.888102,11.891530 28.422176,12.034245 
	C28.227566,11.744833 28.373213,11.521050 28.872616,11.394988 
z"/>
<path fill="#985694" opacity="1.000000" stroke="none" 
	d="
M33.827278,4.265769 
	C34.034714,4.568584 33.896828,4.796754 33.440193,4.989468 
	C33.155262,4.674497 33.275440,4.420200 33.827278,4.265769 
z"/>
<path fill="#985694" opacity="1.000000" stroke="none" 
	d="
M35.822014,2.394338 
	C36.019428,2.725169 35.886005,2.913033 35.453827,3.039785 
	C35.164043,2.717961 35.276077,2.475527 35.822014,2.394338 
z"/>
<path fill="#9F6AA0" opacity="1.000000" stroke="none" 
	d="
M11.333430,84.171005 
	C11.695735,84.028961 11.883224,84.212280 12.020702,84.681381 
	C11.785193,84.723106 11.514501,84.566177 11.333430,84.171005 
z"/>
<path fill="#704471" opacity="1.000000" stroke="none" 
	d="
M73.985916,53.087994 
	C74.442322,52.761726 74.898727,52.435455 75.630165,52.054466 
	C77.227959,56.638382 78.550720,61.277027 80.005493,66.378616 
	C79.089409,68.262276 75.366180,62.864609 74.363403,67.816078 
	C70.785789,66.761810 67.663185,65.418854 64.628418,63.785667 
	C64.734695,63.295536 64.753143,63.095631 64.788361,62.877586 
	C64.805138,62.859447 64.835251,62.820282 65.151993,62.699581 
	C67.345993,60.023163 69.223244,57.467445 71.399261,54.877720 
	C72.460655,54.258472 73.223289,53.673233 73.985916,53.087994 
z"/>
<path fill="#C680BA" opacity="1.000000" stroke="none" 
	d="
M75.992958,50.026184 
	C77.943275,41.584427 77.473083,33.428463 73.070679,25.351952 
	C73.017029,24.973455 73.072624,24.921610 73.072624,24.921612 
	C75.354065,26.639187 77.635513,28.356764 79.976395,30.403109 
	C79.865921,31.627264 79.493347,32.537838 79.559120,33.415565 
	C79.972054,38.926033 80.807175,44.472347 76.916679,49.715313 
	C76.440254,49.970222 75.992958,50.026184 75.992958,50.026184 
z"/>
<path fill="#B767AD" opacity="1.000000" stroke="none" 
	d="
M64.540588,64.075897 
	C67.663185,65.418854 70.785789,66.761810 74.249519,68.149185 
	C74.590652,68.193611 74.720421,68.261971 74.792793,68.597580 
	C75.268883,69.264626 75.672607,69.596069 76.076324,69.927513 
	C77.582756,71.149338 79.089195,72.371155 80.719353,74.127365 
	C80.568550,75.103210 80.294029,75.544662 80.019501,75.986122 
	C78.304733,76.232925 76.589973,76.479721 74.528671,76.443237 
	C74.015862,74.912193 74.307884,73.083504 73.598656,72.523987 
	C71.338921,70.741272 68.706848,69.430542 66.011612,67.679977 
	C64.875679,66.863930 63.946728,66.305389 63.094414,65.539459 
	C63.438576,64.984634 63.706100,64.637215 64.116066,64.238174 
	C64.258507,64.186554 64.540588,64.075897 64.540588,64.075897 
z"/>
<path fill="#AF66A7" opacity="1.000000" stroke="none" 
	d="
M86.279785,85.879456 
	C85.575760,86.357979 85.085999,86.609879 84.075310,86.814651 
	C83.044289,86.522392 82.534203,86.277252 82.005402,86.011108 
	C81.986687,85.990097 81.947807,85.949417 81.947807,85.949417 
	C82.332993,83.915855 82.718178,81.882301 83.017303,79.533249 
	C85.077225,80.065224 87.223206,80.912689 89.936501,81.984177 
	C88.454453,83.563622 87.474258,84.608238 86.279785,85.879456 
z"/>
<path fill="#AF66A7" opacity="1.000000" stroke="none" 
	d="
M79.935776,76.259155 
	C80.294029,75.544662 80.568550,75.103210 80.900391,74.403290 
	C83.665176,75.441399 82.768257,76.469963 80.688705,77.756065 
	C80.300385,78.100822 79.938103,78.102036 79.306107,78.068214 
	C79.308281,77.532852 79.580170,77.032524 79.935776,76.259155 
z"/>
<path fill="#704471" opacity="1.000000" stroke="none" 
	d="
M76.003784,69.643494 
	C75.672607,69.596069 75.268883,69.264626 74.808746,68.669159 
	C75.145294,68.723244 75.538261,69.041351 76.003784,69.643494 
z"/>
<path fill="#9E5B99" opacity="1.000000" stroke="none" 
	d="
M75.965195,50.323303 
	C75.992958,50.026184 76.440254,49.970222 76.665283,49.974998 
	C76.763107,50.544834 76.635895,51.109894 76.221664,51.742821 
	C75.935570,51.413937 75.936508,51.017181 75.965195,50.323303 
z"/>
<path fill="#AF66A7" opacity="1.000000" stroke="none" 
	d="
M82.709030,78.895782 
	C82.735184,79.062767 82.264481,78.955490 82.194443,78.853485 
	C82.124397,78.751488 82.395966,78.551598 82.395966,78.551598 
	C82.395966,78.551598 82.682877,78.728806 82.709030,78.895782 
z"/>
<path fill="#F6C42F" opacity="1.000000" stroke="none" 
	d="
M63.973625,64.289787 
	C63.706100,64.637215 63.438576,64.984634 62.751881,65.633018 
	C60.675621,66.654320 59.018528,67.374657 56.982109,68.177261 
	C51.607311,70.160294 46.600700,72.555161 41.463692,67.760590 
	C38.573040,66.359253 35.971203,65.121994 33.369362,63.884731 
	C33.597908,63.369923 33.826454,62.855114 34.225342,61.812370 
	C37.534908,57.550884 40.674129,53.817337 43.963913,49.771458 
	C46.387943,47.380928 48.661415,45.302731 51.262684,42.924889 
	C49.998856,42.143574 49.169880,41.631096 48.161617,41.007778 
	C49.961288,38.276123 51.583782,35.813400 53.206276,33.350674 
	C54.861660,33.695393 56.517040,34.040112 58.498016,34.377403 
	C58.823605,34.369976 59.012550,34.229088 58.807461,34.471169 
	C59.077892,35.289047 59.553413,35.864841 60.028934,36.440636 
	C59.952545,36.752331 59.930153,37.067852 59.981792,37.915813 
	C59.993385,38.642494 59.984947,38.840572 59.976505,39.038654 
	C59.976505,39.038654 59.974907,38.978363 59.631157,38.946701 
	C58.230644,40.530624 56.146008,42.330921 56.394196,43.712002 
	C56.664875,45.218269 58.943478,46.627857 60.640293,47.523563 
	C61.830124,48.151642 63.511894,47.847782 65.242081,48.279686 
	C65.285202,53.339607 65.060226,58.079945 64.835251,62.820282 
	C64.835251,62.820282 64.805138,62.859447 64.559898,63.042953 
	C64.200981,63.580898 64.087303,63.935341 63.973625,64.289787 
M49.411472,64.123550 
	C51.146801,63.494904 52.882133,62.866257 54.617462,62.237610 
	C54.473667,61.894299 54.329872,61.550991 54.186077,61.207680 
	C50.636620,61.207680 47.087158,61.207680 43.537697,61.207680 
	C43.468437,61.639942 43.399181,62.072201 43.329922,62.504463 
	C45.090054,63.048367 46.850185,63.592266 49.411472,64.123550 
z"/>
<path fill="#9E5B99" opacity="1.000000" stroke="none" 
	d="
M73.989845,52.623337 
	C73.223289,53.673233 72.460655,54.258472 71.411301,54.535919 
	C71.417503,52.870316 71.710419,51.512505 72.003334,50.154694 
	C71.752151,50.049664 71.500977,49.944633 71.249794,49.839603 
	C70.444717,50.752514 69.639641,51.665428 69.485352,51.840389 
	C67.841293,50.092148 66.451263,48.614040 65.161186,46.802879 
	C66.612907,44.691231 68.400291,42.902679 65.141342,41.229477 
	C64.467598,38.839588 63.793850,36.449703 63.120102,34.059814 
	C63.573463,33.861435 64.026825,33.663059 64.480186,33.464680 
	C65.718552,35.466072 67.175774,37.368835 68.134483,39.496250 
	C69.117714,41.678074 69.613335,44.079639 70.991882,46.275036 
	C70.991882,43.697182 70.991882,41.119331 70.991882,38.541481 
	C74.785194,42.584255 73.794930,47.487396 73.989845,52.623337 
z"/>
<path fill="#8F6838" opacity="1.000000" stroke="none" 
	d="
M64.945251,41.498970 
	C68.400291,42.902679 66.612907,44.691231 65.146652,47.009361 
	C65.032173,47.548889 64.973976,47.960106 64.973976,47.960106 
	C63.511894,47.847782 61.830124,48.151642 60.640293,47.523563 
	C58.943478,46.627857 56.664875,45.218269 56.394196,43.712002 
	C56.146008,42.330921 58.230644,40.530624 59.661095,38.950333 
	C61.336746,40.369785 60.697075,45.043259 64.945251,41.498970 
z"/>
<path fill="#985694" opacity="1.000000" stroke="none" 
	d="
M59.981110,36.096359 
	C59.553413,35.864841 59.077892,35.289047 58.753540,34.366386 
	C59.247566,34.597046 59.590424,35.174564 59.981110,36.096359 
z"/>
<path fill="#C680BA" opacity="1.000000" stroke="none" 
	d="
M72.986877,24.996605 
	C72.665512,24.540688 72.374298,24.061621 72.037247,23.289898 
	C71.991417,22.997240 72.024445,22.959162 72.024445,22.959162 
	C72.322159,23.432812 72.619881,23.906460 72.995110,24.650860 
	C73.072624,24.921610 73.017029,24.973455 72.986877,24.996605 
z"/>
<path fill="#C680BA" opacity="1.000000" stroke="none" 
	d="
M71.972168,23.013504 
	C71.952911,23.029770 71.766472,22.858574 71.766472,22.858574 
	C71.766472,22.858574 71.942177,22.851784 71.983307,22.905472 
	C72.024445,22.959162 71.991417,22.997240 71.972168,23.013504 
z"/>
<path fill="#8F6838" opacity="1.000000" stroke="none" 
	d="
M60.176712,38.951248 
	C59.984947,38.840572 59.993385,38.642494 60.033031,38.148338 
	C60.250324,38.068962 60.456547,38.273102 60.606083,38.512630 
	C60.637253,38.562553 60.458778,38.743355 60.176712,38.951248 
z"/>
<path fill="#FAC62C" opacity="1.000000" stroke="none" 
	d="
M50.011951,92.107979 
	C48.422249,90.928535 46.832542,89.749092 45.139217,87.911057 
	C43.672752,84.171165 42.309906,81.089882 40.987968,77.607727 
	C41.058537,76.396378 41.088192,75.585884 41.143898,74.673546 
	C41.169949,74.571693 41.264942,74.384125 41.522148,74.188110 
	C41.884773,73.586342 41.990196,73.180588 42.096306,72.693619 
	C42.096992,72.612411 42.162235,72.463661 42.539680,72.387871 
	C46.747768,72.938248 50.578415,73.564423 55.470009,74.364021 
	C54.808643,77.009323 54.248413,79.772835 53.414604,82.451172 
	C52.400829,85.707603 51.156528,88.892265 50.011951,92.107979 
z"/>
<path fill="#3E92A9" opacity="1.000000" stroke="none" 
	d="
M40.947060,78.008591 
	C42.309906,81.089882 43.672752,84.171165 44.968697,87.629395 
	C43.691422,87.211647 42.481041,86.416969 41.123177,84.974091 
	C38.775547,76.274208 33.688343,71.701752 25.970900,70.839355 
	C25.980721,70.459991 25.990543,70.080635 26.001354,69.417603 
	C28.353273,67.545456 30.704205,65.956985 33.212250,64.126617 
	C35.971203,65.121994 38.573040,66.359253 41.511673,68.211388 
	C41.953056,70.038727 42.057648,71.251190 42.162235,72.463661 
	C42.162235,72.463661 42.096992,72.612411 41.855354,72.901711 
	C41.497459,73.588715 41.381199,73.986420 41.264942,74.384125 
	C41.264942,74.384125 41.169949,74.571693 40.846275,74.842979 
	C40.664089,76.079041 40.805573,77.043816 40.947060,78.008591 
z"/>
<path fill="#47C1DB" opacity="1.000000" stroke="none" 
	d="
M66.218605,67.937492 
	C68.706848,69.430542 71.338921,70.741272 73.598656,72.523987 
	C74.307884,73.083504 74.015862,74.912193 74.158905,76.435638 
	C69.695236,78.449554 65.254784,80.187798 60.256439,81.790176 
	C61.871895,77.082039 64.045250,72.509766 66.218605,67.937492 
z"/>
<path fill="#B79533" opacity="1.000000" stroke="none" 
	d="
M42.539680,72.387871 
	C42.057648,71.251190 41.953056,70.038727 41.800484,68.375458 
	C46.600700,72.555161 51.607311,70.160294 56.892433,68.574547 
	C57.240906,70.031700 56.884815,71.448425 57.428379,72.269745 
	C60.192242,76.445877 57.948948,79.579079 55.768040,82.960289 
	C54.844425,84.392235 54.658146,86.299774 54.136738,87.991150 
	C52.951672,89.254616 51.766613,90.518089 50.296753,91.944771 
	C51.156528,88.892265 52.400829,85.707603 53.414604,82.451172 
	C54.248413,79.772835 54.808643,77.009323 55.470009,74.364021 
	C50.578415,73.564423 46.747768,72.938248 42.539680,72.387871 
z"/>
<path fill="#46C2DB" opacity="1.000000" stroke="none" 
	d="
M25.689005,71.012680 
	C33.688343,71.701752 38.775547,76.274208 40.969486,84.702805 
	C39.318283,83.760574 37.612999,82.509109 36.040581,81.108498 
	C32.544384,77.994286 28.625397,76.617058 23.590374,77.821564 
	C22.739920,76.630707 22.276875,75.485870 21.713530,74.093040 
	C22.862820,73.188492 24.134966,72.187248 25.689005,71.012680 
z"/>
<path fill="#3E92A8" opacity="1.000000" stroke="none" 
	d="
M54.417133,87.835793 
	C54.658146,86.299774 54.844425,84.392235 55.768040,82.960289 
	C57.948948,79.579079 60.192242,76.445877 57.428379,72.269745 
	C56.884815,71.448425 57.240906,70.031700 57.271759,68.492279 
	C59.018528,67.374657 60.675621,66.654320 62.675243,65.840416 
	C63.946728,66.305389 64.875679,66.863930 66.011612,67.679977 
	C64.045250,72.509766 61.871895,77.082039 59.919876,81.889496 
	C58.326649,83.976601 56.512085,85.828522 54.417133,87.835793 
z"/>
<path fill="#AF66A7" opacity="1.000000" stroke="none" 
	d="
M82.026756,89.116341 
	C81.991684,89.458984 81.839661,89.737862 81.350784,90.056671 
	C79.856499,88.732140 78.292854,87.288727 81.646255,86.018524 
	C81.947807,85.949417 81.986687,85.990097 82.001099,86.395477 
	C82.019264,87.572678 82.023010,88.344513 82.026756,89.116341 
z"/>
<path fill="#CC6ABB" opacity="1.000000" stroke="none" 
	d="
M82.278946,88.960602 
	C82.023010,88.344513 82.019264,87.572678 82.019814,86.416481 
	C82.534203,86.277252 83.044289,86.522392 83.809387,86.893341 
	C83.553299,87.614395 83.042213,88.209633 82.278946,88.960602 
z"/>
<path fill="#B4248F" opacity="1.000000" stroke="none" 
	d="
M53.036209,33.028728 
	C51.583782,35.813400 49.961288,38.276123 48.161617,41.007778 
	C49.169880,41.631096 49.998856,42.143574 51.262684,42.924889 
	C48.661415,45.302731 46.387943,47.380928 43.633060,49.806049 
	C39.739174,53.325958 36.326698,56.498947 32.914219,59.671936 
	C31.766085,58.920727 30.617949,58.169518 29.244043,57.196800 
	C28.895184,55.711155 29.059662,54.328346 28.595985,53.204762 
	C27.106264,49.594860 28.299267,47.488914 32.492897,46.467949 
	C36.729340,49.243431 39.806488,47.219540 42.040943,44.670174 
	C42.728397,43.885841 40.990891,40.976082 40.067390,38.815842 
	C38.491386,37.931908 37.211761,37.271687 35.989414,36.287743 
	C38.748413,32.685303 41.450134,29.406590 44.151855,26.127876 
	C47.056618,28.320847 49.961376,30.513815 53.036209,33.028728 
z"/>
<path fill="#E2B532" opacity="1.000000" stroke="none" 
	d="
M44.101810,25.765949 
	C41.450134,29.406590 38.748413,32.685303 35.714645,36.450462 
	C34.896999,37.629993 34.411392,38.323090 33.595020,39.088528 
	C32.413734,40.723385 31.563215,42.285896 30.712694,43.848404 
	C29.786106,44.840538 28.859520,45.832672 27.932934,46.824806 
	C27.325083,46.603340 26.717232,46.381878 26.109383,46.160416 
	C27.049717,41.632359 27.990051,37.104301 29.001175,32.235378 
	C34.414974,34.776230 37.076370,30.518503 37.648376,20.701244 
	C39.721687,22.025410 41.886726,23.714718 44.101810,25.765949 
z"/>
<path fill="#967346" opacity="1.000000" stroke="none" 
	d="
M30.846251,44.202316 
	C31.563215,42.285896 32.413734,40.723385 33.624428,39.499146 
	C34.941296,41.559925 35.897987,43.282429 36.854683,45.004936 
	C37.968414,43.500217 39.118824,42.020363 40.168392,40.472149 
	C40.410694,40.114727 40.307808,39.523300 40.363770,39.039555 
	C40.990891,40.976082 42.728397,43.885841 42.040943,44.670174 
	C39.806488,47.219540 36.729340,49.243431 32.845596,46.324169 
	C32.060345,45.636173 31.520075,45.096199 30.846251,44.202316 
z"/>
<path fill="#51AAC0" opacity="1.000000" stroke="none" 
	d="
M32.975079,59.981247 
	C36.326698,56.498947 39.739174,53.325958 43.482498,50.118378 
	C40.674129,53.817337 37.534908,57.550884 34.180077,61.531288 
	C33.654953,61.282280 33.345448,60.786419 32.975079,59.981247 
z"/>
<path fill="#000000" opacity="1.000000" stroke="none" 
	d="
M20.873009,70.702682 
	C20.494734,71.246025 20.008606,71.507881 19.260723,71.447517 
	C19.587694,70.890602 20.176424,70.655899 20.873009,70.702682 
z"/>
<path fill="#B08E35" opacity="1.000000" stroke="none" 
	d="
M65.242081,48.279686 
	C64.973976,47.960106 65.032173,47.548889 65.046707,47.342411 
	C66.451263,48.614040 67.841293,50.092148 69.485352,51.840389 
	C69.639641,51.665428 70.444717,50.752514 71.249794,49.839603 
	C71.500977,49.944633 71.752151,50.049664 72.003334,50.154694 
	C71.710419,51.512505 71.417503,52.870316 71.112534,54.569927 
	C69.223244,57.467445 67.345993,60.023163 65.152000,62.699581 
	C65.060226,58.079945 65.285202,53.339607 65.242081,48.279686 
z"/>
<path fill="#B08E35" opacity="1.000000" stroke="none" 
	d="
M64.116066,64.238174 
	C64.087303,63.935341 64.200981,63.580898 64.543121,63.061089 
	C64.753143,63.095631 64.734695,63.295536 64.628418,63.785667 
	C64.540588,64.075897 64.258507,64.186554 64.116066,64.238174 
z"/>
<path fill="#9C3D28" opacity="1.000000" stroke="none" 
	d="
M49.010895,64.129860 
	C46.850185,63.592266 45.090054,63.048367 43.329922,62.504463 
	C43.399181,62.072201 43.468437,61.639942 43.537697,61.207680 
	C47.087158,61.207680 50.636620,61.207680 54.186077,61.207680 
	C54.329872,61.550991 54.473667,61.894299 54.617462,62.237610 
	C52.882133,62.866257 51.146801,63.494904 49.010895,64.129860 
z"/>
<path fill="#B79533" opacity="1.000000" stroke="none" 
	d="
M40.987968,77.607727 
	C40.805573,77.043816 40.664089,76.079041 40.820229,74.944832 
	C41.088192,75.585884 41.058537,76.396378 40.987968,77.607727 
z"/>
<path fill="#B79533" opacity="1.000000" stroke="none" 
	d="
M41.522148,74.188110 
	C41.381199,73.986420 41.497459,73.588715 41.854668,72.982918 
	C41.990196,73.180588 41.884773,73.586342 41.522148,74.188110 
z"/>
<path fill="#373133" opacity="1.000000" stroke="none" 
	d="
M40.067390,38.815842 
	C40.307808,39.523300 40.410694,40.114727 40.168392,40.472149 
	C39.118824,42.020363 37.968414,43.500217 36.854683,45.004936 
	C35.897987,43.282429 34.941296,41.559925 33.955193,39.426800 
	C34.411392,38.323090 34.896999,37.629993 35.657372,36.774185 
	C37.211761,37.271687 38.491386,37.931908 40.067390,38.815842 
z"/>
</svg>