<svg version="1.1" id="Layer_1" xmlns="http://www.w3.org/2000/svg" xmlns:xlink="http://www.w3.org/1999/xlink" x="0px" y="0px"
	 width="100%" viewBox="0 0 200 200" enable-background="new 0 0 200 200" xml:space="preserve">
<path fill="#000000" opacity="1.000000" stroke="none" 
	d="
M121.000000,201.000000 
	C80.691574,201.000000 40.883148,201.000000 1.037362,201.000000 
	C1.037362,134.399948 1.037362,67.799866 1.037362,1.099894 
	C67.558250,1.099894 134.116699,1.099894 200.837585,1.099894 
	C200.837585,67.666344 200.837585,134.333145 200.837585,201.000000 
	C174.466812,201.000000 147.983414,201.000000 121.000000,201.000000 
M47.238010,136.233154 
	C51.539139,131.829437 55.840267,127.425720 61.060822,123.003479 
	C87.273766,123.003479 113.486702,123.003479 139.669754,123.003479 
	C139.669754,112.673050 139.669754,102.960579 139.669754,92.832886 
	C123.230278,92.832886 107.119377,92.832886 91.256409,92.227982 
	C95.491524,88.096268 99.726639,83.964554 104.894279,79.975616 
	C135.129700,79.975616 165.365112,79.975616 195.702621,79.975616 
	C195.702621,69.425072 195.702621,59.377892 195.702621,48.924809 
	C174.965729,48.924809 154.524536,48.924809 134.010574,48.004627 
	C134.010574,43.745285 134.010574,39.485943 134.010574,35.300468 
	C96.336151,35.300468 59.304485,35.300468 22.320812,35.300468 
	C22.320812,45.327614 22.320812,55.050152 22.320812,65.112274 
	C53.749523,65.112274 84.858009,65.112274 115.762634,65.737167 
	C111.495796,70.116776 107.228951,74.496384 102.030014,78.985466 
	C81.785652,78.985466 61.541286,78.985466 41.308418,78.985466 
	C41.308418,89.301758 41.308418,99.023956 41.308418,109.166328 
	C51.742481,109.166328 61.870899,109.166328 71.737923,109.766510 
	C67.749481,113.856911 63.761044,117.947311 58.866520,122.010445 
	C41.334919,122.010445 23.803322,122.010445 6.289530,122.010445 
	C6.289530,132.636108 6.289530,142.672287 6.289530,153.060516 
	C14.351424,153.060516 22.127405,153.060516 29.983507,153.981674 
	C29.983507,158.230362 29.983507,162.479034 29.983507,166.667877 
	C52.688709,166.667877 74.692719,166.667877 96.636742,166.667877 
	C96.636742,156.632828 96.636742,146.933655 96.636742,136.837906 
	C79.843987,136.837906 63.413189,136.837906 47.238010,136.233154 
z"/>
<path fill="#B4BEBE" opacity="1.000000" stroke="none" 
	d="
M115.966492,65.112274 
	C84.858009,65.112274 53.749523,65.112274 22.320812,65.112274 
	C22.320812,55.050152 22.320812,45.327614 22.320812,35.300468 
	C59.304485,35.300468 96.336151,35.300468 134.010574,35.300468 
	C134.010574,39.485943 134.010574,43.745285 133.848373,48.738319 
	C129.674545,53.547886 125.764420,57.731815 121.599266,61.644230 
	C120.024902,63.123058 117.861427,63.974728 115.966492,65.112274 
z"/>
<path fill="#55B4C8" opacity="1.000000" stroke="none" 
	d="
M115.864563,65.424721 
	C117.861427,63.974728 120.024902,63.123058 121.599266,61.644230 
	C125.764420,57.731815 129.674545,53.547886 133.884766,49.198410 
	C154.524536,48.924809 174.965729,48.924809 195.702621,48.924809 
	C195.702621,59.377892 195.702621,69.425072 195.702621,79.975616 
	C165.365112,79.975616 135.129700,79.975616 104.299217,79.709106 
	C103.474586,79.230446 103.227234,79.041573 102.962112,78.875992 
	C107.228951,74.496384 111.495796,70.116776 115.864563,65.424721 
z"/>
<path fill="#FF8C00" opacity="1.000000" stroke="none" 
	d="
M91.008476,92.832886 
	C107.119377,92.832886 123.230278,92.832886 139.669754,92.832886 
	C139.669754,102.960579 139.669754,112.673050 139.669754,123.003479 
	C113.486702,123.003479 87.273766,123.003479 60.499535,122.770187 
	C59.883034,122.370506 59.827820,122.204117 59.772606,122.037720 
	C63.761044,117.947311 67.749481,113.856911 72.224022,109.396042 
	C74.291252,107.938797 76.027588,107.020653 77.425049,105.734344 
	C82.019043,101.505768 86.490158,97.143677 91.008476,92.832886 
z"/>
<path fill="#FF0000" opacity="1.000000" stroke="none" 
	d="
M46.982388,136.837891 
	C63.413189,136.837906 79.843987,136.837906 96.636742,136.837906 
	C96.636742,146.933655 96.636742,156.632828 96.636742,166.667877 
	C74.692719,166.667877 52.688709,166.667877 29.983507,166.667877 
	C29.983507,162.479034 29.983507,158.230362 30.163681,153.262817 
	C35.890030,147.308594 41.436207,142.073242 46.982388,136.837891 
z"/>
<path fill="#B4BEBE" opacity="1.000000" stroke="none" 
	d="
M91.132446,92.530434 
	C86.490158,97.143677 82.019043,101.505768 77.425049,105.734344 
	C76.027588,107.020653 74.291252,107.938797 72.354721,109.095947 
	C61.870899,109.166328 51.742481,109.166328 41.308418,109.166328 
	C41.308418,99.023956 41.308418,89.301758 41.308418,78.985466 
	C61.541286,78.985466 81.785652,78.985466 102.496063,78.930725 
	C103.227234,79.041573 103.474586,79.230446 103.832954,79.637726 
	C99.726639,83.964554 95.491524,88.096268 91.132446,92.530434 
z"/>
<path fill="#B4BEBE" opacity="1.000000" stroke="none" 
	d="
M47.110199,136.535522 
	C41.436207,142.073242 35.890030,147.308594 30.123623,152.802231 
	C22.127405,153.060516 14.351424,153.060516 6.289530,153.060516 
	C6.289530,142.672287 6.289530,132.636108 6.289530,122.010445 
	C23.803322,122.010445 41.334919,122.010445 59.319565,122.024078 
	C59.827820,122.204117 59.883034,122.370506 60.039822,122.779449 
	C55.840267,127.425720 51.539139,131.829437 47.110199,136.535522 
z"/>
</svg>